<svg width="212" height="280" viewBox="0 0 212 280" fill="none" xmlns="http://www.w3.org/2000/svg">
<path d="M50.8701 223.022C49.8101 226.982 47.6301 229.222 43.0701 230.662C40.5301 231.462 38.2201 231.622 36.1201 231.352C36.4001 231.832 42.9801 243.042 48.6201 241.322C53.3101 239.902 50.8701 223.022 50.8701 223.022ZM175.33 231.362C173.23 231.632 170.92 231.462 168.38 230.672C163.83 229.222 161.65 226.982 160.59 223.032H160.58C160.58 223.032 158.15 239.912 162.83 241.332C168.47 243.062 175.05 231.852 175.33 231.362ZM30.0101 229.072C25.4401 226.122 22.7401 221.232 21.9601 218.942C11.4601 187.862 36.4801 155.352 36.4801 155.352C36.4801 155.352 4.09013 147.212 4.01013 112.362C3.95013 80.9024 26.6101 66.1124 26.6101 66.1124C12.5801 61.2824 3.70013 34.8524 24.7301 18.1124C46.5001 0.772431 70.9301 15.0324 70.9301 25.6724V26.0424C77.1801 23.6024 89.7101 19.6824 105.72 19.6824C121.73 19.6824 134.09 23.5424 140.4 25.9824L140.52 25.6724C140.52 15.0324 164.96 0.772431 186.72 18.1124C207.75 34.8524 198.86 61.2824 184.84 66.1124C184.84 66.1124 207.49 80.9024 207.43 112.362C207.36 147.212 174.97 155.352 174.97 155.352C174.97 155.352 199.99 187.862 189.49 218.942C188.72 221.242 186.02 226.132 181.44 229.072C181.52 229.682 184.11 252.392 167.64 267.142C161.09 273.002 152.66 275.462 144.55 275.462C135.18 275.462 126.23 272.192 121.13 267.142C121.13 267.142 114.26 268.862 105.72 268.862C97.1801 268.862 90.3201 267.142 90.3201 267.142C85.2201 272.182 76.2701 275.462 66.9001 275.462C58.7801 275.462 50.3401 273.012 43.8001 267.142C27.3401 252.392 29.9301 229.682 30.0101 229.072Z" fill="#D9B680"/>
<path d="M175.34 275.462H144.55C152.67 275.462 161.09 273.012 167.64 267.142C174.75 271.042 175.34 275.462 175.34 275.462Z" fill="#231815"/>
<path d="M168.38 230.672C170.92 231.472 173.23 231.632 175.33 231.362C175.05 231.842 168.47 243.052 162.83 241.332C158.14 239.912 160.58 223.032 160.58 223.032H160.59C161.65 226.992 163.83 229.232 168.38 230.672Z" fill="#231815"/>
<path d="M66.9001 275.462H36.1101C36.1101 275.462 36.6901 271.042 43.8001 267.142C50.3501 273.002 58.7901 275.462 66.9001 275.462Z" fill="#231815"/>
<path d="M50.8701 223.022C50.8701 223.022 53.3001 239.902 48.6201 241.322C42.9801 243.052 36.4001 231.842 36.1201 231.352C38.2201 231.622 40.5301 231.452 43.0701 230.662C47.6301 229.212 49.8101 226.972 50.8701 223.022Z" fill="#231815"/>
<path d="M26.6001 66.1224C12.5701 61.2924 3.6901 34.8624 24.7201 18.1224C46.4901 0.782441 70.9201 15.0424 70.9201 25.6824" stroke="#231815" stroke-width="8" stroke-linecap="round" stroke-linejoin="round"/>
<path d="M184.84 66.1224C198.86 61.2924 207.75 34.8624 186.72 18.1224C164.95 0.782441 140.52 15.0424 140.52 25.6824" stroke="#231815" stroke-width="8" stroke-linecap="round" stroke-linejoin="round"/>
<path d="M26.6001 66.1224C26.6001 66.1224 3.95008 80.9124 4.00008 112.372C4.08008 147.222 36.4701 155.362 36.4701 155.362C36.4701 155.362 11.4501 187.872 21.9501 218.952C22.7201 221.252 25.4201 226.142 30.0001 229.082C31.7601 230.222 33.8001 231.062 36.1101 231.372C38.2101 231.642 40.5201 231.472 43.0601 230.682C47.6201 229.232 49.8001 226.992 50.8601 223.042C52.4701 217.102 51.5901 207.282 52.5501 190.512" stroke="#231815" stroke-width="8" stroke-linecap="round" stroke-linejoin="round"/>
<path d="M184.84 66.1224C184.84 66.1224 207.49 80.9124 207.43 112.372C207.36 147.222 174.97 155.362 174.97 155.362C174.97 155.362 199.99 187.872 189.49 218.952C188.72 221.252 186.02 226.142 181.44 229.082C179.68 230.222 177.64 231.062 175.33 231.372C173.23 231.642 170.92 231.472 168.38 230.682C163.83 229.232 161.65 226.992 160.59 223.042C158.96 217.102 159.84 207.282 158.87 190.512" stroke="#231815" stroke-width="8" stroke-linecap="round" stroke-linejoin="round"/>
<path d="M36.1101 231.352H36.1201C36.4001 231.842 42.9801 243.052 48.6201 241.332C53.3101 239.912 50.8701 223.032 50.8701 223.032" stroke="#231815" stroke-width="8" stroke-linecap="round" stroke-linejoin="round"/>
<path d="M67.7601 275.462H36.1001C36.1001 275.462 36.6801 271.042 43.7901 267.142" stroke="#231815" stroke-width="8" stroke-linecap="round" stroke-linejoin="round"/>
<path d="M144.93 27.9724C144.93 27.9724 143.33 27.1324 140.4 25.9924C134.09 23.5524 121.64 19.6924 105.72 19.6924C89.8 19.6924 77.18 23.6024 70.93 26.0524C68.08 27.1724 66.52 27.9824 66.52 27.9824" stroke="#231815" stroke-width="8" stroke-linecap="round" stroke-linejoin="round"/>
<path d="M175.34 231.352H175.33C175.05 231.842 168.47 243.052 162.83 241.332C158.14 239.912 160.58 223.032 160.58 223.032" stroke="#231815" stroke-width="8" stroke-linecap="round" stroke-linejoin="round"/>
<path d="M181.43 229.072C181.51 229.692 184.1 252.402 167.63 267.152C161.08 273.012 152.65 275.472 144.54 275.472C135.17 275.472 126.22 272.202 121.12 267.152C121.12 267.152 114.25 268.872 105.71 268.872C97.1701 268.872 90.3101 267.152 90.3101 267.152C85.2101 272.192 76.2601 275.472 66.8901 275.472C58.7701 275.472 50.3301 273.022 43.7901 267.152C27.3301 252.402 29.9201 229.692 30.0001 229.082" stroke="#231815" stroke-width="8" stroke-linecap="round" stroke-linejoin="round"/>
<path d="M143.67 275.462H175.34C175.34 275.462 174.75 271.042 167.64 267.142" stroke="#231815" stroke-width="8" stroke-linecap="round" stroke-linejoin="round"/>
<path d="M182.05 165.372C162.96 179.442 142.02 190.742 120.49 200.572C99.0201 210.292 76.4501 218.092 53.6601 224.102L49.3401 205.332L57.6101 203.502C76.9001 199.242 96.0301 193.342 114.45 186.212C127.66 181.082 140.63 175.202 153.18 168.602C160.6 164.692 168.01 160.472 174.96 155.822L182.05 165.382V165.372Z" fill="#231815"/>
<path d="M126.73 85.7524C126.73 93.0924 119.08 100.632 105.72 100.632C92.3601 100.632 84.7101 93.0924 84.7101 85.7524C84.7101 78.4124 92.3601 72.4624 105.72 72.4624C119.08 72.4624 126.73 78.4124 126.73 85.7524Z" fill="#231815"/>
<path d="M82.7401 69.8724C86.2084 69.8724 89.0201 67.0608 89.0201 63.5924C89.0201 60.1241 86.2084 57.3124 82.7401 57.3124C79.2717 57.3124 76.4601 60.1241 76.4601 63.5924C76.4601 67.0608 79.2717 69.8724 82.7401 69.8724Z" fill="#231815"/>
<path d="M128.7 69.8724C132.168 69.8724 134.98 67.0608 134.98 63.5924C134.98 60.1241 132.168 57.3124 128.7 57.3124C125.232 57.3124 122.42 60.1241 122.42 63.5924C122.42 67.0608 125.232 69.8724 128.7 69.8724Z" fill="#231815"/>
<path d="M67.96 95.9424C67.96 95.9424 67.29 102.552 63.66 106.942" stroke="#231815" stroke-width="6" stroke-linecap="round" stroke-linejoin="round"/>
<path d="M145.03 102.082C145.03 102.082 125.39 108.822 105.72 108.822C86.06 108.822 66.41 102.082 66.41 102.082" stroke="#231815" stroke-width="6" stroke-linecap="round" stroke-linejoin="round"/>
<path d="M143.48 95.9424C143.48 95.9424 144.15 102.552 147.78 106.942" stroke="#231815" stroke-width="6" stroke-linecap="round" stroke-linejoin="round"/>
<path d="M105.72 87.7224V108.822" stroke="#231815" stroke-width="6" stroke-linecap="round" stroke-linejoin="round"/>
<path opacity="0.2" d="M39.8201 34.4724C39.8201 34.4724 45.0001 37.9724 46.4801 46.6024" stroke="#231815" stroke-width="8" stroke-linecap="round" stroke-linejoin="round"/>
<path opacity="0.2" d="M171.62 34.4724C171.62 34.4724 166.44 37.9724 164.96 46.6024" stroke="#231815" stroke-width="8" stroke-linecap="round" stroke-linejoin="round"/>
</svg>
