<svg width="254" height="280" viewBox="0 0 254 280" fill="none" xmlns="http://www.w3.org/2000/svg">
<path d="M71.8701 223.022C70.8101 226.982 68.6301 229.222 64.0701 230.662C61.5301 231.462 59.2201 231.622 57.1201 231.352C57.4001 231.832 63.9801 243.042 69.6201 241.322C74.3101 239.902 71.8701 223.022 71.8701 223.022ZM196.33 231.362C194.23 231.632 191.92 231.462 189.38 230.672C184.83 229.222 182.65 226.982 181.59 223.032H181.58C181.58 223.032 179.15 239.912 183.83 241.332C189.47 243.062 196.05 231.852 196.33 231.362ZM51.0101 229.072C46.4401 226.122 43.7401 221.232 42.9601 218.942C32.4601 187.862 57.4801 155.352 57.4801 155.352C57.4801 155.352 25.0901 147.212 25.0101 112.362C24.9501 80.9024 47.6101 66.1124 47.6101 66.1124C33.5801 61.2824 24.7001 34.8524 45.7301 18.1124C67.5001 0.772431 91.9301 15.0324 91.9301 25.6724V26.0424C98.1801 23.6024 110.71 19.6824 126.72 19.6824C142.73 19.6824 155.09 23.5424 161.4 25.9824L161.52 25.6724C161.52 15.0324 185.96 0.772431 207.72 18.1124C228.75 34.8524 219.86 61.2824 205.84 66.1124C205.84 66.1124 228.49 80.9024 228.43 112.362C228.36 147.212 195.97 155.352 195.97 155.352C195.97 155.352 220.99 187.862 210.49 218.942C209.72 221.242 207.02 226.132 202.44 229.072C202.52 229.682 205.11 252.392 188.64 267.142C182.09 273.002 173.66 275.462 165.55 275.462C156.18 275.462 147.23 272.192 142.13 267.142C142.13 267.142 135.26 268.862 126.72 268.862C118.18 268.862 111.32 267.142 111.32 267.142C106.22 272.182 97.2701 275.462 87.9001 275.462C79.7801 275.462 71.3401 273.012 64.8001 267.142C48.3401 252.392 50.9301 229.682 51.0101 229.072Z" fill="#D9B680"/>
<path d="M196.34 275.462H165.55C173.67 275.462 182.09 273.012 188.64 267.142C195.75 271.042 196.34 275.462 196.34 275.462Z" fill="#231815"/>
<path d="M189.38 230.672C191.92 231.472 194.23 231.632 196.33 231.362C196.05 231.842 189.47 243.052 183.83 241.332C179.14 239.912 181.58 223.032 181.58 223.032H181.59C182.65 226.992 184.83 229.232 189.38 230.672Z" fill="#231815"/>
<path d="M87.9001 275.462H57.1101C57.1101 275.462 57.6901 271.042 64.8001 267.142C71.3501 273.002 79.7901 275.462 87.9001 275.462Z" fill="#231815"/>
<path d="M71.8701 223.022C71.8701 223.022 74.3001 239.902 69.6201 241.322C63.9801 243.052 57.4001 231.842 57.1201 231.352C59.2201 231.622 61.5301 231.452 64.0701 230.662C68.6301 229.212 70.8101 226.972 71.8701 223.022Z" fill="#231815"/>
<path d="M47.6001 66.1224C33.5701 61.2924 24.6901 34.8624 45.7201 18.1224C67.4901 0.782426 91.9201 15.0424 91.9201 25.6824" stroke="#231815" stroke-width="8" stroke-linecap="round" stroke-linejoin="round"/>
<path d="M205.84 66.1224C219.86 61.2924 228.75 34.8624 207.72 18.1224C185.95 0.782426 161.52 15.0424 161.52 25.6824" stroke="#231815" stroke-width="8" stroke-linecap="round" stroke-linejoin="round"/>
<path d="M47.6001 66.1224C47.6001 66.1224 24.9501 80.9124 25.0001 112.372C25.0801 147.222 57.4701 155.362 57.4701 155.362C57.4701 155.362 32.4501 187.872 42.9501 218.952C43.7201 221.252 46.4201 226.142 51.0001 229.082C52.7601 230.222 54.8001 231.062 57.1101 231.372C59.2101 231.642 61.5201 231.472 64.0601 230.682C68.6201 229.232 70.8001 226.992 71.8601 223.042C73.4701 217.102 72.5901 207.282 73.5501 190.512" stroke="#231815" stroke-width="8" stroke-linecap="round" stroke-linejoin="round"/>
<path d="M205.84 66.1224C205.84 66.1224 228.49 80.9124 228.43 112.372C228.36 147.222 195.97 155.362 195.97 155.362C195.97 155.362 220.99 187.872 210.49 218.952C209.72 221.252 207.02 226.142 202.44 229.082C200.68 230.222 198.64 231.062 196.33 231.372C194.23 231.642 191.92 231.472 189.38 230.682C184.83 229.232 182.65 226.992 181.59 223.042C179.96 217.102 180.84 207.282 179.87 190.512" stroke="#231815" stroke-width="8" stroke-linecap="round" stroke-linejoin="round"/>
<path d="M57.1101 231.352H57.1201C57.4001 231.842 63.9801 243.052 69.6201 241.332C74.3101 239.912 71.8701 223.032 71.8701 223.032" stroke="#231815" stroke-width="8" stroke-linecap="round" stroke-linejoin="round"/>
<path d="M88.7601 275.462H57.1001C57.1001 275.462 57.6801 271.042 64.7901 267.142" stroke="#231815" stroke-width="8" stroke-linecap="round" stroke-linejoin="round"/>
<path d="M165.93 27.9724C165.93 27.9724 164.33 27.1324 161.4 25.9924C155.09 23.5524 142.64 19.6924 126.72 19.6924C110.8 19.6924 98.18 23.6024 91.93 26.0524C89.08 27.1724 87.52 27.9824 87.52 27.9824" stroke="#231815" stroke-width="8" stroke-linecap="round" stroke-linejoin="round"/>
<path d="M196.34 231.352H196.33C196.05 231.842 189.47 243.052 183.83 241.332C179.14 239.912 181.58 223.032 181.58 223.032" stroke="#231815" stroke-width="8" stroke-linecap="round" stroke-linejoin="round"/>
<path d="M202.43 229.072C202.51 229.692 205.1 252.402 188.63 267.152C182.08 273.012 173.65 275.472 165.54 275.472C156.17 275.472 147.22 272.202 142.12 267.152C142.12 267.152 135.25 268.872 126.71 268.872C118.17 268.872 111.31 267.152 111.31 267.152C106.21 272.192 97.2601 275.472 87.8901 275.472C79.7701 275.472 71.3301 273.022 64.7901 267.152C48.3301 252.402 50.9201 229.692 51.0001 229.082" stroke="#231815" stroke-width="8" stroke-linecap="round" stroke-linejoin="round"/>
<path d="M164.67 275.462H196.34C196.34 275.462 195.75 271.042 188.64 267.142" stroke="#231815" stroke-width="8" stroke-linecap="round" stroke-linejoin="round"/>
<path d="M203.05 165.372C183.96 179.442 163.02 190.742 141.49 200.572C120.02 210.292 97.4501 218.092 74.6601 224.102L70.3401 205.332L78.6101 203.502C97.9001 199.242 117.03 193.342 135.45 186.212C148.66 181.082 161.63 175.202 174.18 168.602C181.6 164.692 189.01 160.472 195.96 155.822L203.05 165.382V165.372Z" fill="#231815"/>
<path d="M147.73 85.7524C147.73 93.0924 140.08 100.632 126.72 100.632C113.36 100.632 105.71 93.0924 105.71 85.7524C105.71 78.4124 113.36 72.4624 126.72 72.4624C140.08 72.4624 147.73 78.4124 147.73 85.7524Z" fill="#231815"/>
<path d="M103.74 69.8724C107.208 69.8724 110.02 67.0608 110.02 63.5924C110.02 60.1241 107.208 57.3124 103.74 57.3124C100.272 57.3124 97.4601 60.1241 97.4601 63.5924C97.4601 67.0608 100.272 69.8724 103.74 69.8724Z" fill="#231815"/>
<path d="M149.7 69.8724C153.168 69.8724 155.98 67.0608 155.98 63.5924C155.98 60.1241 153.168 57.3124 149.7 57.3124C146.232 57.3124 143.42 60.1241 143.42 63.5924C143.42 67.0608 146.232 69.8724 149.7 69.8724Z" fill="#231815"/>
<path d="M88.96 95.9424C88.96 95.9424 88.29 102.552 84.66 106.942" stroke="#231815" stroke-width="6" stroke-linecap="round" stroke-linejoin="round"/>
<path d="M166.03 102.082C166.03 102.082 146.39 108.822 126.72 108.822C107.06 108.822 87.41 102.082 87.41 102.082" stroke="#231815" stroke-width="6" stroke-linecap="round" stroke-linejoin="round"/>
<path d="M164.48 95.9424C164.48 95.9424 165.15 102.552 168.78 106.942" stroke="#231815" stroke-width="6" stroke-linecap="round" stroke-linejoin="round"/>
<path d="M126.72 87.7224V108.822" stroke="#231815" stroke-width="6" stroke-linecap="round" stroke-linejoin="round"/>
<path opacity="0.2" d="M60.8201 34.4724C60.8201 34.4724 66.0001 37.9724 67.4801 46.6024" stroke="#231815" stroke-width="8" stroke-linecap="round" stroke-linejoin="round"/>
<path opacity="0.2" d="M192.62 34.4724C192.62 34.4724 187.44 37.9724 185.96 46.6024" stroke="#231815" stroke-width="8" stroke-linecap="round" stroke-linejoin="round"/>
</svg>
