<svg width="254" height="281" viewBox="0 0 254 281" fill="none" xmlns="http://www.w3.org/2000/svg">
<path d="M121.277 259.247V259.557C121.277 259.557 121.687 270.517 121.079 276.214L98.5472 276.277H49.5735C49.4121 273.397 49.4493 272.627 49.3376 269.189C40.8091 262.512 34.6765 250.013 33.4972 227.41C31.3495 186.215 47.3017 164.469 47.3017 164.469C34.4779 156.388 27.7246 143.567 27.7246 129.169C27.7246 114.771 34.242 101.738 44.9927 93.9803C46.5941 81.9778 51.808 70.9063 59.7034 61.5475C57.8909 59.4251 56.4385 57.0047 55.5074 54.2865C53.1736 47.4971 54.5391 39.9753 60.0262 35.085C65.6373 30.0705 74.0417 29.2761 80.1619 32.9377C83.5013 34.936 85.8724 37.2447 87.9704 40.5339C93.7678 37.9025 99.9996 35.8297 106.554 34.4396C113.084 33.037 119.937 32.2923 127 32.2923C141.115 32.2923 154.411 35.2836 166.03 40.5463C168.128 37.2571 170.499 34.9485 173.839 32.9501C179.934 29.2885 188.363 30.0953 193.975 35.0974C199.462 39.9878 200.815 47.4971 198.493 54.2989C197.562 57.0171 196.11 59.4375 194.297 61.56C202.193 70.9187 207.407 81.9902 209.008 93.9927C219.746 101.75 226.276 114.522 226.276 129.181C226.276 143.84 219.523 156.401 206.699 164.481C206.699 164.481 222.651 186.227 220.504 227.423C219.324 250.025 213.192 262.524 204.663 269.202C204.539 272.652 204.576 273.409 204.427 276.289H155.454L132.922 276.227C132.314 270.517 132.723 259.57 132.723 259.57V259.272C128.54 259.495 124.642 259.433 121.29 259.272L121.277 259.247Z" fill="#F6DCC4"/>
<path d="M164.367 157.108C164.367 157.108 188.996 249.181 126.988 249.181C64.9791 249.181 89.6088 157.108 89.6088 157.108C51.125 165.126 36.9729 117.141 62.2977 102.867C80.5465 92.5651 101.526 107.72 101.526 107.72C110.266 100.695 120.433 99.2801 126.988 99.2801C133.542 99.2801 143.71 100.707 152.449 107.72C152.449 107.72 173.429 92.5651 191.678 102.867C217.003 117.141 202.85 165.126 164.354 157.108H164.367Z" fill="white"/>
<path d="M103.91 75.8958C94.6487 75.8958 87.1133 83.4299 87.1133 92.6893C87.1133 101.949 94.6487 109.483 103.91 109.483C113.171 109.483 120.706 101.949 120.706 92.6893C120.706 83.4299 113.171 75.8958 103.91 75.8958Z" fill="#231815"/>
<path d="M108.255 84.6959C110.601 87.501 108.416 90.7406 104.866 93.7071C101.315 96.6736 97.7398 98.2499 95.3935 95.4324C93.0473 92.6272 94.028 87.9479 97.5784 84.9814C101.129 82.0149 105.908 81.8908 108.255 84.6959Z" fill="white"/>
<path d="M104.903 100.906C103.438 99.3049 104.655 97.3314 106.678 95.482C108.702 93.6326 110.775 92.6148 112.24 94.216C113.704 95.8171 113.233 98.6099 111.209 100.459C109.186 102.309 106.355 102.507 104.903 100.906Z" fill="white"/>
<path d="M150.078 75.8958C140.817 75.8958 133.281 83.4299 133.281 92.6893C133.281 101.949 140.817 109.483 150.078 109.483C159.339 109.483 166.874 101.949 166.874 92.6893C166.874 83.4299 159.339 75.8958 150.078 75.8958Z" fill="#231815"/>
<path d="M154.423 84.6959C156.769 87.501 154.584 90.7406 151.034 93.7071C147.483 96.6736 143.908 98.2499 141.562 95.4324C139.215 92.6272 140.196 87.9479 143.747 84.9814C147.297 82.0149 152.076 81.8908 154.423 84.6959Z" fill="white"/>
<path d="M151.071 100.906C149.606 99.3049 150.823 97.3314 152.846 95.482C154.87 93.6326 156.943 92.6148 158.408 94.216C159.872 95.8171 159.401 98.6099 157.377 100.459C155.354 102.309 152.523 102.507 151.071 100.906Z" fill="white"/>
<path d="M127 104.046C122.121 104.046 118.708 106.231 118.708 109.371C118.708 112.511 122.581 115.49 127 115.49C131.42 115.49 135.293 112.635 135.293 109.371C135.293 106.107 131.879 104.046 127 104.046Z" fill="#231815" stroke="#231815" stroke-width="2"/>
<path d="M111.681 116.632C111.681 116.632 111.88 123.235 119.452 123.235C128.788 123.235 126.826 111.059 126.826 111.059" stroke="#231815" stroke-width="6" stroke-linecap="round" stroke-linejoin="round"/>
<path d="M142.307 116.632C142.307 116.632 142.108 123.235 134.536 123.235C125.2 123.235 127.162 111.059 127.162 111.059" stroke="#231815" stroke-width="6" stroke-linecap="round" stroke-linejoin="round"/>
<path d="M113.084 33.4713C113.084 33.4713 111.16 60.0455 127.137 60.0455C143.114 60.0455 140.867 33.4713 140.867 33.4713" fill="#EC1C24"/>
<path d="M176.495 173.38C176.495 173.38 168.438 186.276 152.101 195.114C152.101 195.114 143.473 195.486 142.915 203.293C142.443 210.008 149.867 211.498 149.867 211.498C149.867 211.498 148.638 215.705 152.225 218.833C155.589 221.775 159.5 219.988 159.5 219.988C159.5 219.988 159.599 222.644 162.479 224.766C165.844 227.236 170.846 226.305 172.92 221.936C172.92 221.936 184.341 220.273 191.702 210.194" fill="#F6DCC4"/>
<path d="M176.495 173.38C176.495 173.38 168.438 186.276 152.101 195.114C152.101 195.114 143.473 195.486 142.915 203.293C142.443 210.008 149.867 211.498 149.867 211.498C149.867 211.498 148.638 215.705 152.225 218.833C155.589 221.775 159.5 219.988 159.5 219.988C159.5 219.988 159.599 222.644 162.479 224.766C165.844 227.236 170.846 226.305 172.92 221.936C172.92 221.936 184.341 220.273 191.702 210.194" stroke="#231815" stroke-width="6" stroke-linecap="round" stroke-linejoin="round"/>
<path d="M116.274 72.1845L121.377 76.4915" stroke="#231815" stroke-width="6" stroke-linecap="round" stroke-linejoin="round"/>
<path d="M137.714 72.1845L132.624 76.4915" stroke="#231815" stroke-width="6" stroke-linecap="round" stroke-linejoin="round"/>
<path d="M108.739 257.807C108.739 257.807 113.717 258.837 121.277 259.247C124.641 259.421 128.527 259.483 132.698 259.247C136.671 259.061 140.916 258.614 145.249 257.795" stroke="#231815" stroke-width="6" stroke-linecap="round" stroke-linejoin="round"/>
<path d="M132.711 259.557C132.711 259.557 132.301 270.517 132.909 276.214L155.441 276.276H204.415C204.576 273.397 204.539 272.627 204.65 269.189C213.179 262.511 219.312 250.012 220.491 227.41C222.638 186.214 206.686 164.468 206.686 164.468C219.498 156.388 226.263 143.566 226.263 129.168C226.263 114.77 219.746 101.738 208.995 93.9801C207.394 81.9777 202.18 70.9061 194.285 61.5474C196.097 59.4249 197.55 57.0046 198.481 54.2863C200.802 47.4969 199.449 39.9752 193.962 35.0848C188.351 30.0703 179.934 29.276 173.826 32.9375C170.487 34.9359 168.103 37.2445 166.018 40.5337C154.398 35.271 141.115 32.2797 126.988 32.2797C119.924 32.2797 113.071 33.0368 106.542 34.427C99.9994 35.8295 93.7675 37.89 87.9577 40.5213C85.8473 37.2321 83.4886 34.9235 80.1492 32.9251C74.0414 29.2636 65.6247 30.0703 60.0135 35.0724C54.5264 39.9628 53.1609 47.4721 55.4947 54.2739C56.4258 56.9921 57.8782 59.4125 59.6907 61.535C51.7953 70.8937 46.5814 81.9653 44.98 93.9677C34.2417 101.725 27.7119 114.497 27.7119 129.156C27.7119 143.815 34.4652 156.376 47.289 164.456C47.289 164.456 31.3368 186.202 33.4845 227.398C34.6638 250 40.7964 262.499 49.3249 269.177C49.449 272.627 49.4118 273.384 49.5608 276.264H98.5469L121.079 276.202C121.687 270.492 121.265 259.545 121.265 259.545" stroke="#231815" stroke-width="8" stroke-linecap="round" stroke-linejoin="round"/>
<path d="M144.951 17.6459C144.951 17.6459 147.868 57.4638 127.186 57.4638C106.504 57.4638 109 17.6459 109 17.6459C115.517 12.408 138.396 12.4328 144.938 17.6459H144.951Z" fill="#DC3B3E" stroke="#231815" stroke-width="8" stroke-linecap="round" stroke-linejoin="round"/>
<path d="M140.184 166.305L123.76 173.169C127.646 182.453 128.527 191.527 128.614 197.274C128.688 201.978 129.669 206.533 131.444 210.79L141.959 235.95C143.784 240.319 149.457 242.106 154.622 239.946L166.03 235.18C171.194 233.02 173.901 227.733 172.076 223.364L161.561 198.204C159.786 193.947 157.228 190.05 153.926 186.698C149.892 182.59 144.057 175.59 140.184 166.305Z" fill="#DC3B3E" stroke="#231815" stroke-width="8" stroke-linecap="round" stroke-linejoin="round"/>
<path d="M137.043 154.023L117.28 162.268L122.242 174.158L142.005 165.913L137.043 154.023Z" fill="white" stroke="#231815" stroke-width="8" stroke-linecap="round" stroke-linejoin="round"/>
<path d="M77.5047 173.38C77.5047 173.38 85.5614 186.276 101.898 195.114C101.898 195.114 110.526 195.486 111.085 203.293C111.557 210.008 104.133 211.498 104.133 211.498C104.133 211.498 105.362 215.705 101.774 218.833C98.4101 221.775 94.4996 219.988 94.4996 219.988C94.4996 219.988 94.4003 222.644 91.5202 224.766C88.156 227.236 83.1531 226.305 81.0799 221.936C81.0799 221.936 69.6589 220.273 62.2974 210.194" fill="#F6DCC4"/>
<path d="M77.5047 173.38C77.5047 173.38 85.5614 186.276 101.898 195.114C101.898 195.114 110.526 195.486 111.085 203.293C111.557 210.008 104.133 211.498 104.133 211.498C104.133 211.498 105.362 215.705 101.774 218.833C98.4101 221.775 94.4996 219.988 94.4996 219.988C94.4996 219.988 94.4003 222.644 91.5202 224.766C88.156 227.236 83.1531 226.305 81.0799 221.936C81.0799 221.936 69.6589 220.273 62.2974 210.194" stroke="#231815" stroke-width="8" stroke-linecap="round" stroke-linejoin="round"/>
<path d="M176.495 173.38C176.495 173.38 168.438 186.276 152.101 195.114C152.101 195.114 143.473 195.486 142.915 203.293C142.443 210.008 149.867 211.498 149.867 211.498C149.867 211.498 148.638 215.705 152.225 218.833C155.589 221.775 159.5 219.988 159.5 219.988C159.5 219.988 159.599 222.644 162.479 224.766C165.844 227.236 170.846 226.305 172.92 221.936C172.92 221.936 184.341 220.273 191.702 210.194" fill="#F6DCC4"/>
<path d="M176.495 173.38C176.495 173.38 168.438 186.276 152.101 195.114C152.101 195.114 143.473 195.486 142.915 203.293C142.443 210.008 149.867 211.498 149.867 211.498C149.867 211.498 148.638 215.705 152.225 218.833C155.589 221.775 159.5 219.988 159.5 219.988C159.5 219.988 159.599 222.644 162.479 224.766C165.844 227.236 170.846 226.305 172.92 221.936C172.92 221.936 184.341 220.273 191.702 210.194" stroke="#231815" stroke-width="8" stroke-linecap="round" stroke-linejoin="round"/>
</svg>
