<svg width="208" height="281" viewBox="0 0 208 281" fill="none" xmlns="http://www.w3.org/2000/svg">
<path d="M98.2775 259.247V259.557C98.2775 259.557 98.6871 270.517 98.0788 276.214L75.5472 276.277H26.5735C26.4121 273.397 26.4493 272.627 26.3376 269.189C17.8091 262.512 11.6765 250.013 10.4972 227.41C8.34953 186.214 24.3017 164.468 24.3017 164.468C11.4779 156.388 4.72461 143.567 4.72461 129.169C4.72461 114.771 11.242 101.738 21.9927 93.9803C23.5941 81.9778 28.808 70.9062 36.7034 61.5475C34.8909 59.425 33.4385 57.0047 32.5074 54.2864C30.1736 47.497 31.5391 39.9753 37.0262 35.085C42.6373 30.0705 51.0417 29.2761 57.1619 32.9377C60.5013 34.936 62.8724 37.2447 64.9704 40.5339C70.7678 37.9025 76.9996 35.8297 83.5543 34.4395C90.0841 33.037 96.9367 32.2922 104 32.2922C118.115 32.2922 131.411 35.2835 143.03 40.5463C145.128 37.2571 147.499 34.9484 150.839 32.9501C156.934 29.2885 165.363 30.0953 170.975 35.0974C176.462 39.9877 177.815 47.497 175.493 54.2989C174.562 57.0171 173.11 59.4375 171.297 61.5599C179.193 70.9186 184.407 81.9902 186.008 93.9927C196.746 101.75 203.276 114.522 203.276 129.181C203.276 143.84 196.523 156.401 183.699 164.481C183.699 164.481 199.651 186.227 197.504 227.423C196.324 250.025 190.192 262.524 181.663 269.202C181.539 272.652 181.576 273.409 181.427 276.289H132.454L109.922 276.227C109.314 270.517 109.723 259.57 109.723 259.57V259.272C105.54 259.495 101.642 259.433 98.2899 259.272L98.2775 259.247Z" fill="#F6DCC4"/>
<path d="M141.367 157.108C141.367 157.108 165.996 249.181 103.988 249.181C41.9791 249.181 66.6088 157.108 66.6088 157.108C28.125 165.126 13.9729 117.141 39.2977 102.867C57.5465 92.5651 78.5263 107.72 78.5263 107.72C87.2659 100.695 97.433 99.2801 103.988 99.2801C110.542 99.2801 120.71 100.707 129.449 107.72C129.449 107.72 150.429 92.5651 168.678 102.867C194.003 117.141 179.85 165.126 141.354 157.108H141.367Z" fill="white"/>
<path d="M80.9096 75.8958C71.6487 75.8958 64.1133 83.4299 64.1133 92.6893C64.1133 101.949 71.6487 109.483 80.9096 109.483C90.1705 109.483 97.7059 101.949 97.7059 92.6893C97.7059 83.4299 90.1705 75.8958 80.9096 75.8958Z" fill="#231815"/>
<path d="M85.2546 84.6959C87.6009 87.501 85.416 90.7406 81.8655 93.7071C78.3151 96.6736 74.7398 98.2499 72.3935 95.4324C70.0473 92.6272 71.028 87.9479 74.5784 84.9814C78.1289 82.0149 82.9083 81.8908 85.2546 84.6959Z" fill="white"/>
<path d="M81.9028 100.906C80.4379 99.3049 81.6545 97.3314 83.678 95.482C85.7015 93.6326 87.7747 92.6148 89.2395 94.216C90.7044 95.8171 90.2327 98.6099 88.2092 100.459C86.1857 102.309 83.3552 102.507 81.9028 100.906Z" fill="white"/>
<path d="M127.078 75.8958C117.817 75.8958 110.281 83.4299 110.281 92.6893C110.281 101.949 117.817 109.483 127.078 109.483C136.339 109.483 143.874 101.949 143.874 92.6893C143.874 83.4299 136.339 75.8958 127.078 75.8958Z" fill="#231815"/>
<path d="M131.423 84.6959C133.769 87.501 131.584 90.7406 128.034 93.7071C124.483 96.6736 120.908 98.2499 118.562 95.4324C116.215 92.6272 117.196 87.9479 120.747 84.9814C124.297 82.0149 129.076 81.8908 131.423 84.6959Z" fill="white"/>
<path d="M128.071 100.906C126.606 99.3049 127.823 97.3314 129.846 95.482C131.87 93.6326 133.943 92.6148 135.408 94.216C136.872 95.8171 136.401 98.6099 134.377 100.459C132.354 102.309 129.523 102.507 128.071 100.906Z" fill="white"/>
<path d="M104 104.046C99.1214 104.046 95.7075 106.231 95.7075 109.371C95.7075 112.511 99.5807 115.49 104 115.49C108.42 115.49 112.293 112.635 112.293 109.371C112.293 106.107 108.879 104.046 104 104.046Z" fill="#231815" stroke="#231815" stroke-width="2"/>
<path d="M88.6812 116.632C88.6812 116.632 88.8798 123.235 96.4524 123.235C105.788 123.235 103.826 111.059 103.826 111.059" stroke="#231815" stroke-width="6" stroke-linecap="round" stroke-linejoin="round"/>
<path d="M119.307 116.632C119.307 116.632 119.108 123.235 111.536 123.235C102.2 123.235 104.162 111.059 104.162 111.059" stroke="#231815" stroke-width="6" stroke-linecap="round" stroke-linejoin="round"/>
<path d="M90.0837 33.4713C90.0837 33.4713 88.1595 60.0455 104.137 60.0455C120.114 60.0455 117.867 33.4713 117.867 33.4713" fill="#EC1C24"/>
<path d="M153.495 173.38C153.495 173.38 145.438 186.276 129.101 195.114C129.101 195.114 120.473 195.486 119.915 203.293C119.443 210.008 126.867 211.498 126.867 211.498C126.867 211.498 125.638 215.705 129.225 218.833C132.589 221.775 136.5 219.988 136.5 219.988C136.5 219.988 136.599 222.644 139.479 224.766C142.844 227.236 147.846 226.305 149.92 221.936C149.92 221.936 161.341 220.273 168.702 210.194" fill="#F6DCC4"/>
<path d="M153.495 173.38C153.495 173.38 145.438 186.276 129.101 195.114C129.101 195.114 120.473 195.486 119.915 203.293C119.443 210.008 126.867 211.498 126.867 211.498C126.867 211.498 125.638 215.705 129.225 218.833C132.589 221.775 136.5 219.988 136.5 219.988C136.5 219.988 136.599 222.644 139.479 224.766C142.844 227.236 147.846 226.305 149.92 221.936C149.92 221.936 161.341 220.273 168.702 210.194" stroke="#231815" stroke-width="6" stroke-linecap="round" stroke-linejoin="round"/>
<path d="M93.2744 72.1845L98.3766 76.4915" stroke="#231815" stroke-width="6" stroke-linecap="round" stroke-linejoin="round"/>
<path d="M114.714 72.1845L109.624 76.4915" stroke="#231815" stroke-width="6" stroke-linecap="round" stroke-linejoin="round"/>
<path d="M85.7389 257.807C85.7389 257.807 90.717 258.837 98.2772 259.247C101.641 259.421 105.527 259.483 109.698 259.247C113.671 259.061 117.916 258.614 122.249 257.795" stroke="#231815" stroke-width="6" stroke-linecap="round" stroke-linejoin="round"/>
<path d="M109.711 259.557C109.711 259.557 109.301 270.517 109.909 276.214L132.441 276.276H181.415C181.576 273.397 181.539 272.627 181.65 269.189C190.179 262.511 196.312 250.012 197.491 227.41C199.638 186.214 183.686 164.468 183.686 164.468C196.498 156.388 203.263 143.566 203.263 129.168C203.263 114.77 196.746 101.738 185.995 93.9801C184.394 81.9777 179.18 70.9061 171.285 61.5474C173.097 59.4249 174.55 57.0046 175.481 54.2863C177.802 47.4969 176.449 39.9752 170.962 35.0848C165.351 30.0703 156.934 29.276 150.826 32.9375C147.487 34.9359 145.103 37.2445 143.018 40.5337C131.398 35.271 118.115 32.2797 103.988 32.2797C96.924 32.2797 90.0714 33.0368 83.5416 34.427C76.9994 35.8295 70.7675 37.89 64.9577 40.5213C62.8473 37.2321 60.4886 34.9235 57.1492 32.9251C51.0414 29.2636 42.6247 30.0703 37.0135 35.0724C31.5264 39.9628 30.1609 47.4721 32.4947 54.2739C33.4258 56.9921 34.8782 59.4125 36.6907 61.535C28.7953 70.8937 23.5814 81.9653 21.98 93.9677C11.2417 101.725 4.71191 114.497 4.71191 129.156C4.71191 143.815 11.4652 156.376 24.289 164.456C24.289 164.456 8.33684 186.202 10.4845 227.398C11.6638 250 17.7964 262.499 26.3249 269.177C26.449 272.627 26.4118 273.384 26.5608 276.264H75.5469L98.0785 276.202C98.6868 270.492 98.2648 259.545 98.2648 259.545" stroke="#231815" stroke-width="8" stroke-linecap="round" stroke-linejoin="round"/>
<path d="M121.951 17.6459C121.951 17.6459 124.868 57.4638 104.186 57.4638C83.5043 57.4638 85.9996 17.6459 85.9996 17.6459C92.517 12.408 115.396 12.4328 121.938 17.6459H121.951Z" fill="#DC3B3E" stroke="#231815" stroke-width="8" stroke-linecap="round" stroke-linejoin="round"/>
<path d="M117.184 166.305L100.76 173.169C104.646 182.453 105.527 191.527 105.614 197.274C105.688 201.978 106.669 206.533 108.444 210.79L118.959 235.95C120.784 240.319 126.457 242.106 131.622 239.946L143.03 235.18C148.194 233.02 150.901 227.733 149.076 223.364L138.561 198.204C136.786 193.947 134.228 190.05 130.926 186.698C126.892 182.59 121.057 175.59 117.184 166.305Z" fill="#DC3B3E" stroke="#231815" stroke-width="8" stroke-linecap="round" stroke-linejoin="round"/>
<path d="M114.043 154.023L94.2798 162.268L99.2421 174.158L119.005 165.913L114.043 154.023Z" fill="white" stroke="#231815" stroke-width="8" stroke-linecap="round" stroke-linejoin="round"/>
<path d="M54.5047 173.38C54.5047 173.38 62.5614 186.276 78.8984 195.114C78.8984 195.114 87.5262 195.486 88.0849 203.293C88.5566 210.008 81.133 211.498 81.133 211.498C81.133 211.498 82.362 215.705 78.7743 218.833C75.4101 221.775 71.4996 219.988 71.4996 219.988C71.4996 219.988 71.4003 222.644 68.5202 224.766C65.156 227.236 60.1531 226.305 58.0799 221.936C58.0799 221.936 46.6589 220.273 39.2974 210.194" fill="#F6DCC4"/>
<path d="M54.5047 173.38C54.5047 173.38 62.5614 186.276 78.8984 195.114C78.8984 195.114 87.5262 195.486 88.0849 203.293C88.5566 210.008 81.133 211.498 81.133 211.498C81.133 211.498 82.362 215.705 78.7743 218.833C75.4101 221.775 71.4996 219.988 71.4996 219.988C71.4996 219.988 71.4003 222.644 68.5202 224.766C65.156 227.236 60.1531 226.305 58.0799 221.936C58.0799 221.936 46.6589 220.273 39.2974 210.194" stroke="#231815" stroke-width="8" stroke-linecap="round" stroke-linejoin="round"/>
<path d="M153.495 173.38C153.495 173.38 145.438 186.276 129.101 195.114C129.101 195.114 120.473 195.486 119.915 203.293C119.443 210.008 126.867 211.498 126.867 211.498C126.867 211.498 125.638 215.705 129.225 218.833C132.589 221.775 136.5 219.988 136.5 219.988C136.5 219.988 136.599 222.644 139.479 224.766C142.844 227.236 147.846 226.305 149.92 221.936C149.92 221.936 161.341 220.273 168.702 210.194" fill="#F6DCC4"/>
<path d="M153.495 173.38C153.495 173.38 145.438 186.276 129.101 195.114C129.101 195.114 120.473 195.486 119.915 203.293C119.443 210.008 126.867 211.498 126.867 211.498C126.867 211.498 125.638 215.705 129.225 218.833C132.589 221.775 136.5 219.988 136.5 219.988C136.5 219.988 136.599 222.644 139.479 224.766C142.844 227.236 147.846 226.305 149.92 221.936C149.92 221.936 161.341 220.273 168.702 210.194" stroke="#231815" stroke-width="8" stroke-linecap="round" stroke-linejoin="round"/>
</svg>
