<svg width="252" height="284" viewBox="0 0 252 284" fill="none" xmlns="http://www.w3.org/2000/svg">
<path d="M229.22 67.7281C239.86 84.2481 249.97 100.068 247.16 120.768C243.09 150.898 213.08 169.338 163.7 175.238C152.16 176.618 139.58 177.308 126.02 177.308C112.46 177.308 99.8801 176.608 88.3401 175.238C38.9701 169.338 8.9501 150.898 4.8801 120.768C2.0901 100.068 12.1901 84.2481 22.8201 67.7281C28.7701 58.4881 30.8201 48.5381 39.0401 36.8981C47.1901 25.3481 61.0601 19.5381 75.5701 22.9881C83.3801 24.8381 89.1301 28.7281 95.6801 31.1381C106.87 35.2781 118.72 35.3681 125.94 35.3681H126.11C133.34 35.3681 145.2 35.2681 156.37 31.1381C162.91 28.7281 168.68 24.8381 176.49 22.9881C190.98 19.5381 204.85 25.3481 213.01 36.8981C221.22 48.5481 223.27 58.4981 229.22 67.7281Z" fill="#90B52D"/>
<path d="M87.9302 228.028C87.4802 232.718 87.2502 237.828 87.3602 243.268H87.3402C84.3202 250.438 74.5202 251.398 68.5902 247.118C60.2802 241.098 65.2102 228.728 68.3702 220.658C71.6702 212.238 80.2902 187.608 88.2602 175.898L88.3502 175.238C99.8902 176.618 112.47 177.308 126.03 177.308C139.59 177.308 152.17 176.608 163.71 175.238L163.8 175.898C171.77 187.608 180.4 212.238 183.69 220.658C186.86 228.728 191.77 241.098 183.47 247.118C177.55 251.398 167.75 250.438 164.72 243.268H164.7C164.81 237.828 164.58 232.728 164.13 228.028H164.04C164.04 228.028 149.09 226.168 126.04 226.168C102.99 226.168 88.0502 228.048 88.0502 228.048H87.9502L87.9302 228.028Z" fill="#90B52D"/>
<path d="M126.02 258.628H88.5901C87.8301 253.288 87.4601 248.148 87.3601 243.268C87.2501 237.828 87.4801 232.728 87.9301 228.028H88.0301C88.0301 228.028 102.97 226.168 126.02 226.168C149.07 226.168 164.02 228.048 164.02 228.048H164.11C164.56 232.728 164.79 237.838 164.68 243.268C164.58 248.148 164.21 253.288 163.45 258.628H126.02Z" fill="#FFD047"/>
<path d="M132.03 258.628H157.62C157.62 258.628 156.75 270.048 154.45 279.728H132.02V258.628H132.03Z" fill="#90B52D"/>
<path d="M120.01 258.628V279.728H97.5801C95.3001 270.058 94.4301 258.628 94.4301 258.628H120.01Z" fill="#90B52D"/>
<path d="M126.11 35.3681C133.34 35.3681 145.2 35.2681 156.37 31.1381C162.91 28.7281 168.68 24.8381 176.49 22.9881C190.98 19.5381 204.85 25.3481 213.01 36.8981C221.22 48.5481 223.27 58.4981 229.22 67.7281C239.86 84.2481 249.97 100.068 247.16 120.768C243.09 150.898 213.08 169.338 163.7 175.238C152.16 176.618 139.58 177.308 126.02 177.308C112.46 177.308 99.8801 176.608 88.3401 175.238C38.9701 169.338 8.9501 150.898 4.8801 120.768C2.0901 100.068 12.1901 84.2481 22.8201 67.7281C28.7701 58.4881 30.8201 48.5381 39.0401 36.8981C47.1901 25.3481 61.0601 19.5381 75.5701 22.9881C83.3801 24.8381 89.1301 28.7281 95.6801 31.1381C106.87 35.2781 118.72 35.3681 125.94 35.3681" stroke="#231815" stroke-width="8" stroke-linecap="round" stroke-linejoin="round"/>
<path d="M95.1401 196.418C95.1401 196.418 89.7601 208.808 87.9401 228.018C87.4901 232.708 87.2601 237.818 87.3701 243.258C87.4701 248.138 87.8401 253.278 88.6001 258.618H126.03" stroke="#231815" stroke-width="8" stroke-linecap="round" stroke-linejoin="round"/>
<path d="M88.2601 175.898C80.2901 187.608 71.6701 212.238 68.3701 220.658C65.2201 228.728 60.2901 241.098 68.5901 247.118C74.5301 251.398 84.3201 250.438 87.3401 243.268" stroke="#231815" stroke-width="8" stroke-linecap="round" stroke-linejoin="round"/>
<path d="M94.4301 258.628C94.4301 258.628 95.3001 270.048 97.5801 279.728H120.01V258.628" stroke="#231815" stroke-width="8" stroke-linecap="round" stroke-linejoin="round"/>
<path d="M76.1401 234.158C76.1401 234.158 76.3001 239.968 81.7401 240.008C86.4801 240.028 87.3401 236.258 87.3401 236.258" stroke="#231815" stroke-width="8" stroke-linecap="round" stroke-linejoin="round"/>
<path d="M156.91 196.418C156.91 196.418 162.29 208.808 164.11 228.018C164.56 232.708 164.79 237.818 164.68 243.258C164.58 248.138 164.21 253.278 163.45 258.618H126.02V246.538" stroke="#231815" stroke-width="8" stroke-linecap="round" stroke-linejoin="round"/>
<path d="M163.79 175.898C171.76 187.608 180.39 212.238 183.68 220.658C186.85 228.728 191.76 241.098 183.46 247.118C177.54 251.398 167.74 250.438 164.71 243.268" stroke="#231815" stroke-width="8" stroke-linecap="round" stroke-linejoin="round"/>
<path d="M157.63 258.628C157.63 258.628 156.76 270.048 154.46 279.728H132.03V258.628" stroke="#231815" stroke-width="8" stroke-linecap="round" stroke-linejoin="round"/>
<path d="M175.92 234.158C175.92 234.158 175.76 239.968 170.31 240.008C165.57 240.028 164.71 236.258 164.71 236.258" stroke="#231815" stroke-width="8" stroke-linecap="round" stroke-linejoin="round"/>
<path d="M88.0302 228.038C88.0302 228.038 102.97 226.158 126.02 226.158C149.07 226.158 164.02 228.038 164.02 228.038" stroke="#231815" stroke-width="8" stroke-linecap="round" stroke-linejoin="round"/>
<path d="M46.1401 132.608H205.91" stroke="#231815" stroke-width="6" stroke-linecap="round" stroke-linejoin="round"/>
<path d="M118.87 97.0081C118.87 108.818 104.03 115.908 83.5601 115.908C63.0901 115.908 48.2501 108.818 48.2501 97.0081C48.2501 85.9781 59.6201 85.9781 83.5601 85.9781C107.5 85.9781 118.87 85.9781 118.87 97.0081Z" fill="white" stroke="#231815" stroke-width="6" stroke-linecap="round" stroke-linejoin="round"/>
<path d="M203.8 97.0081C203.8 108.818 188.96 115.908 168.49 115.908C148.02 115.908 133.18 108.818 133.18 97.0081C133.18 85.9781 144.55 85.9781 168.49 85.9781C192.43 85.9781 203.8 85.9781 203.8 97.0081Z" fill="white" stroke="#231815" stroke-width="6" stroke-linecap="round" stroke-linejoin="round"/>
<path d="M73.2501 83.808C71.2801 86.148 70.0901 89.168 70.0901 92.468C70.0901 99.908 76.1201 105.928 83.5501 105.928C90.9801 105.928 97.0101 99.898 97.0101 92.468C97.0101 89.168 95.8201 86.158 93.8501 83.808H73.2401H73.2501Z" fill="#231815"/>
<path d="M158.19 83.808C156.22 86.148 155.03 89.168 155.03 92.468C155.03 99.908 161.06 105.928 168.49 105.928C175.92 105.928 181.95 99.898 181.95 92.468C181.95 89.168 180.76 86.158 178.79 83.808H158.18H158.19Z" fill="#231815"/>
</svg>
