<svg width="233" height="280" viewBox="0 0 233 280" fill="none" xmlns="http://www.w3.org/2000/svg">
<path d="M100.35 143.77C72.53 144.79 55.75 140.65 55.75 140.65C55.75 140.65 51.61 149.19 40.48 147.31C29.06 145.39 26.09 133.41 26.09 124.72C26.09 114.37 29.09 100.35 42.1 99.98C53.42 99.66 56.4 110.11 56.4 110.11C56.4 110.11 74.42 112.75 92.46 110.33C92.46 110.33 96.67 80.83 131.45 81.02C133.65 81.03 135.97 81.17 138.43 81.43C149.32 82.61 157.93 86.01 164.6 90.82C174.54 97.99 180.22 108.27 182.78 118.99C185.43 130.06 184.78 141.61 182.07 150.68C179.31 159.9 176.08 167.32 173.15 173.78C167.04 187.24 162.24 196.53 165.79 209.29C175.11 202.79 195.07 206.36 200.7 223.61C206.33 240.87 197.99 273.07 150.66 275.21C103.33 277.34 83.99 252.68 80.45 222C80.11 219.07 79.98 216.05 80.04 212.97C80.23 201.14 83.06 188.58 86.56 177.46C92.39 158.9 100.05 144.32 100.35 143.76V143.77ZM140.86 118.15C143.89 117.96 146.2 115.35 146.01 112.32C145.82 109.29 143.21 106.98 140.18 107.17C137.15 107.36 134.84 109.97 135.03 113.02C135.22 116.05 137.83 118.36 140.86 118.15ZM120.77 118.38C123.8 118.19 126.11 115.57 125.92 112.53C125.73 109.5 123.11 107.19 120.07 107.38C117.03 107.57 114.73 110.19 114.92 113.23C115.11 116.26 117.73 118.57 120.77 118.38ZM48.64 123.83C48.64 117.78 46 113.99 42.76 113.99C39.52 113.99 36.87 117.78 36.87 123.83C36.87 129.88 39.51 133.67 42.76 133.67C46.01 133.67 48.64 129.88 48.64 123.83Z" fill="#AED8FE"/>
<path d="M183.22 150.56C182.51 150.65 182.08 150.68 182.08 150.68C184.79 141.61 185.45 130.06 182.79 119.01C183.42 119.02 200.74 119.49 200.75 134.01C200.78 147.19 187.25 150.01 183.21 150.56H183.22Z" fill="#3490E3"/>
<path d="M183.22 150.56C184.56 151.16 195.72 156.51 192.13 166.86C187.97 178.77 173.16 173.77 173.16 173.77C176.09 167.31 179.33 159.89 182.08 150.67C182.08 150.67 182.5 150.64 183.22 150.55V150.56Z" fill="#3490E3"/>
<path d="M189.16 91.14C199.82 103.87 183.4 118.47 182.8 118.99C180.23 108.27 174.56 97.99 164.62 90.82C164.62 90.82 178.27 78.13 189.16 91.14Z" fill="#3490E3"/>
<path d="M152.21 65.92C168.75 69.45 164.62 90.83 164.62 90.83C157.94 86.02 149.34 82.62 138.45 81.44C135.99 81.18 133.67 81.05 131.47 81.03V80.97C131.47 80.97 135.64 62.36 152.22 65.92H152.21Z" fill="#3490E3"/>
<path d="M146.01 112.31C146.2 115.34 143.9 117.95 140.86 118.14C137.83 118.34 135.22 116.04 135.03 113.01C134.84 109.96 137.14 107.35 140.18 107.16C143.21 106.97 145.82 109.27 146.01 112.31Z" fill="#231815"/>
<path d="M125.92 112.53C126.11 115.56 123.81 118.19 120.77 118.38C117.73 118.57 115.11 116.27 114.92 113.23C114.73 110.2 117.03 107.57 120.07 107.38C123.11 107.19 125.73 109.49 125.92 112.53Z" fill="#231815"/>
<path d="M86.5499 177.46H86.5599C83.0599 188.57 80.2299 201.14 80.0399 212.97H80.0299C76.7199 213.93 73.2099 214.28 69.9099 213.57C56.9599 210.76 59.2399 193 63.4499 184.12C65.1599 180.53 67.8099 177.27 71.2499 175.23C73.5999 173.83 76.3799 173.48 79.0499 174.03C81.7199 174.6 84.2399 175.85 86.5399 177.47L86.5499 177.46Z" fill="#AED8FE"/>
<path d="M42.76 113.99C46 113.99 48.64 117.78 48.64 123.83C48.64 129.88 46 133.67 42.76 133.67C39.52 133.67 36.87 129.88 36.87 123.83C36.87 117.78 39.51 113.99 42.76 113.99Z" fill="#231815"/>
<path d="M141.17 277.06C98.65 276.7 80.95 252.96 77.58 223.75C75.17 203.03 83.35 178.01 89.95 161.94C89.95 161.94 98.51 158.64 108.1 163.11C115.58 166.59 122.5 170.65 118.5 198.92C115.17 222.4 119.94 235.26 131.29 247.46C138.18 254.87 147.67 266.43 141.18 277.06H141.17Z" fill="white"/>
<path d="M182.8 119.01C185.45 130.06 184.8 141.61 182.09 150.68C179.33 159.9 176.1 167.32 173.17 173.78C167.06 187.24 162.26 196.53 165.81 209.29C166.55 212.03 167.69 214.93 169.29 218.07" stroke="#231815" stroke-width="8" stroke-linecap="round" stroke-linejoin="round"/>
<path d="M140.83 139.04C125.67 141.99 112.03 143.33 100.35 143.76C72.53 144.78 55.75 140.64 55.75 140.64C55.75 140.64 51.61 149.18 40.48 147.3C29.06 145.38 26.09 133.4 26.09 124.71C26.09 114.36 29.09 100.34 42.1 99.97C53.42 99.65 56.4 110.1 56.4 110.1C56.4 110.1 74.42 112.74 92.46 110.32C92.46 110.32 96.67 80.82 131.45 81.01C133.65 81.02 135.97 81.16 138.43 81.42C149.32 82.6 157.93 86 164.6 90.81C174.54 97.98 180.22 108.26 182.78 118.98" stroke="#231815" stroke-width="8" stroke-linecap="round" stroke-linejoin="round"/>
<path d="M140.96 130.02C140.96 130.02 145.23 136.86 143.72 148.16" stroke="#231815" stroke-width="8" stroke-linecap="round" stroke-linejoin="round"/>
<path d="M100.35 143.75C100.04 144.32 92.39 158.9 86.56 177.46C83.06 188.57 80.23 201.14 80.04 212.97C79.98 216.05 80.11 219.07 80.45 222C83.99 252.68 103.33 277.34 150.66 275.21C197.99 273.07 206.33 240.87 200.7 223.61C195.07 206.36 175.11 202.79 165.79 209.29C165.79 209.3 165.78 209.3 165.78 209.3" stroke="#231815" stroke-width="8" stroke-linecap="round" stroke-linejoin="round"/>
<path d="M139.21 182.67C134.91 179.56 129.41 176.82 123.96 176.9C121.25 176.93 118.61 177.88 116.61 179.74C113.69 182.5 111.81 186.26 110.94 190.14C108.75 199.72 110.42 217.55 123.67 217.47C129.07 217.44 134.42 214.63 138.44 211.2" fill="#AED8FE"/>
<path d="M139.21 182.67C134.91 179.56 129.41 176.82 123.96 176.9C121.25 176.93 118.61 177.88 116.61 179.74C113.69 182.5 111.81 186.26 110.94 190.14C108.75 199.72 110.42 217.55 123.67 217.47C129.07 217.44 134.42 214.63 138.44 211.2" stroke="#231815" stroke-width="8" stroke-linecap="round" stroke-linejoin="round"/>
<path d="M86.5499 177.46C84.2499 175.84 81.7199 174.59 79.0599 174.02C76.3899 173.47 73.6099 173.82 71.2599 175.22C67.8199 177.26 65.1599 180.53 63.4599 184.11C59.2499 192.99 56.9699 210.75 69.9199 213.56C73.2199 214.27 76.7299 213.92 80.0399 212.96" stroke="#231815" stroke-width="8" stroke-linecap="round" stroke-linejoin="round"/>
<path d="M131.46 80.96C131.46 80.96 135.63 62.35 152.21 65.91C168.75 69.44 164.62 90.82 164.62 90.82" stroke="#231815" stroke-width="8" stroke-linecap="round" stroke-linejoin="round"/>
<path d="M164.62 90.82C164.62 90.82 178.27 78.13 189.16 91.14C199.82 103.87 183.4 118.47 182.8 118.99" stroke="#231815" stroke-width="8" stroke-linecap="round" stroke-linejoin="round"/>
<path d="M182.78 119.01H182.79C183.42 119.02 200.74 119.49 200.75 134.01C200.78 147.19 187.25 150.01 183.21 150.56C182.5 150.65 182.07 150.68 182.07 150.68" stroke="#231815" stroke-width="8" stroke-linecap="round" stroke-linejoin="round"/>
<path d="M183.09 150.5C183.09 150.5 183.13 150.51 183.22 150.56C184.56 151.16 195.72 156.51 192.13 166.86C187.97 178.77 173.16 173.77 173.16 173.77" stroke="#231815" stroke-width="8" stroke-linecap="round" stroke-linejoin="round"/>
<path opacity="0.2" d="M184.49 187.89C222.51 173.42 235.51 127.17 224.01 90.47C213.33 56.39 174.11 30.78 131.47 38.02C88.8299 45.25 82.9199 77.97 82.9199 77.97C82.9199 77.97 14.0299 65.46 5.73993 112.99C-5.86007 179.56 76.9799 169.97 76.9799 169.97C76.9799 169.97 70.1599 175.94 75.8099 182.89C81.8999 190.4 125.89 197.19 125.89 197.19C125.89 197.19 171.9 205.87 180.24 199.91C187.06 195.04 184.5 187.9 184.5 187.9L184.49 187.89Z" fill="#2983DB"/>
<path d="M184.49 187.89C222.51 173.42 235.51 127.17 224.01 90.47C213.33 56.39 174.11 30.78 131.47 38.02C88.8299 45.25 82.9199 77.97 82.9199 77.97C82.9199 77.97 14.0299 65.46 5.73993 112.99C-5.86007 179.56 76.9799 169.97 76.9799 169.97C76.9799 169.97 70.1599 175.94 75.8099 182.89C81.8999 190.4 125.89 197.19 125.89 197.19C125.89 197.19 171.9 205.87 180.24 199.91C187.06 195.04 184.5 187.9 184.5 187.9L184.49 187.89Z" stroke="#231815" stroke-width="8" stroke-linecap="round" stroke-linejoin="round"/>
<path d="M200.72 138C200.72 138 189.9 169.1 156.64 170.64" stroke="white" stroke-width="8" stroke-linecap="round" stroke-linejoin="round"/>
</svg>
