<svg width="254" height="280" viewBox="0 0 254 280" fill="none" xmlns="http://www.w3.org/2000/svg">
<path d="M110.35 143.77C82.53 144.79 65.75 140.65 65.75 140.65C65.75 140.65 61.61 149.19 50.48 147.31C39.06 145.39 36.09 133.41 36.09 124.72C36.09 114.37 39.09 100.35 52.1 99.98C63.42 99.66 66.4 110.11 66.4 110.11C66.4 110.11 84.42 112.75 102.46 110.33C102.46 110.33 106.67 80.83 141.45 81.02C143.65 81.03 145.97 81.17 148.43 81.43C159.32 82.61 167.93 86.01 174.6 90.82C184.54 97.99 190.22 108.27 192.78 118.99C195.43 130.06 194.78 141.61 192.07 150.68C189.31 159.9 186.08 167.32 183.15 173.78C177.04 187.24 172.24 196.53 175.79 209.29C185.11 202.79 205.07 206.36 210.7 223.61C216.33 240.87 207.99 273.07 160.66 275.21C113.33 277.34 93.99 252.68 90.45 222C90.11 219.07 89.98 216.05 90.04 212.97C90.23 201.14 93.06 188.58 96.56 177.46C102.39 158.9 110.05 144.32 110.35 143.76V143.77ZM150.86 118.15C153.89 117.96 156.2 115.35 156.01 112.32C155.82 109.29 153.21 106.98 150.18 107.17C147.15 107.36 144.84 109.97 145.03 113.02C145.22 116.05 147.83 118.36 150.86 118.15ZM130.77 118.38C133.8 118.19 136.11 115.57 135.92 112.53C135.73 109.5 133.11 107.19 130.07 107.38C127.03 107.57 124.73 110.19 124.92 113.23C125.11 116.26 127.73 118.57 130.77 118.38ZM58.64 123.83C58.64 117.78 56 113.99 52.76 113.99C49.52 113.99 46.87 117.78 46.87 123.83C46.87 129.88 49.51 133.67 52.76 133.67C56.01 133.67 58.64 129.88 58.64 123.83Z" fill="#AED8FE"/>
<path d="M193.22 150.56C192.51 150.65 192.08 150.68 192.08 150.68C194.79 141.61 195.45 130.06 192.79 119.01C193.42 119.02 210.74 119.49 210.75 134.01C210.78 147.19 197.25 150.01 193.21 150.56H193.22Z" fill="#3490E3"/>
<path d="M193.22 150.56C194.56 151.16 205.72 156.51 202.13 166.86C197.97 178.77 183.16 173.77 183.16 173.77C186.09 167.31 189.33 159.89 192.08 150.67C192.08 150.67 192.5 150.64 193.22 150.55V150.56Z" fill="#3490E3"/>
<path d="M199.16 91.14C209.82 103.87 193.4 118.47 192.8 118.99C190.23 108.27 184.56 97.99 174.62 90.82C174.62 90.82 188.27 78.13 199.16 91.14Z" fill="#3490E3"/>
<path d="M162.21 65.92C178.75 69.45 174.62 90.83 174.62 90.83C167.94 86.02 159.34 82.62 148.45 81.44C145.99 81.18 143.67 81.05 141.47 81.03V80.97C141.47 80.97 145.64 62.36 162.22 65.92H162.21Z" fill="#3490E3"/>
<path d="M156.01 112.31C156.2 115.34 153.9 117.95 150.86 118.14C147.83 118.34 145.22 116.04 145.03 113.01C144.84 109.96 147.14 107.35 150.18 107.16C153.21 106.97 155.82 109.27 156.01 112.31Z" fill="#231815"/>
<path d="M135.92 112.53C136.11 115.56 133.81 118.19 130.77 118.38C127.73 118.57 125.11 116.27 124.92 113.23C124.73 110.2 127.03 107.57 130.07 107.38C133.11 107.19 135.73 109.49 135.92 112.53Z" fill="#231815"/>
<path d="M96.5499 177.46H96.5599C93.0599 188.57 90.2299 201.14 90.0399 212.97H90.0299C86.7199 213.93 83.2099 214.28 79.9099 213.57C66.9599 210.76 69.2399 193 73.4499 184.12C75.1599 180.53 77.8099 177.27 81.2499 175.23C83.5999 173.83 86.3799 173.48 89.0499 174.03C91.7199 174.6 94.2399 175.85 96.5399 177.47L96.5499 177.46Z" fill="#AED8FE"/>
<path d="M52.76 113.99C56 113.99 58.64 117.78 58.64 123.83C58.64 129.88 56 133.67 52.76 133.67C49.52 133.67 46.87 129.88 46.87 123.83C46.87 117.78 49.51 113.99 52.76 113.99Z" fill="#231815"/>
<path d="M151.17 277.06C108.65 276.7 90.95 252.96 87.58 223.75C85.17 203.03 93.35 178.01 99.95 161.94C99.95 161.94 108.51 158.64 118.1 163.11C125.58 166.59 132.5 170.65 128.5 198.92C125.17 222.4 129.94 235.26 141.29 247.46C148.18 254.87 157.67 266.43 151.18 277.06H151.17Z" fill="white"/>
<path d="M192.8 119.01C195.45 130.06 194.8 141.61 192.09 150.68C189.33 159.9 186.1 167.32 183.17 173.78C177.06 187.24 172.26 196.53 175.81 209.29C176.55 212.03 177.69 214.93 179.29 218.07" stroke="#231815" stroke-width="8" stroke-linecap="round" stroke-linejoin="round"/>
<path d="M150.83 139.04C135.67 141.99 122.03 143.33 110.35 143.76C82.53 144.78 65.75 140.64 65.75 140.64C65.75 140.64 61.61 149.18 50.48 147.3C39.06 145.38 36.09 133.4 36.09 124.71C36.09 114.36 39.09 100.34 52.1 99.97C63.42 99.65 66.4 110.1 66.4 110.1C66.4 110.1 84.42 112.74 102.46 110.32C102.46 110.32 106.67 80.82 141.45 81.01C143.65 81.02 145.97 81.16 148.43 81.42C159.32 82.6 167.93 86 174.6 90.81C184.54 97.98 190.22 108.26 192.78 118.98" stroke="#231815" stroke-width="8" stroke-linecap="round" stroke-linejoin="round"/>
<path d="M150.96 130.02C150.96 130.02 155.23 136.86 153.72 148.16" stroke="#231815" stroke-width="8" stroke-linecap="round" stroke-linejoin="round"/>
<path d="M110.35 143.75C110.04 144.32 102.39 158.9 96.56 177.46C93.06 188.57 90.23 201.14 90.04 212.97C89.98 216.05 90.11 219.07 90.45 222C93.99 252.68 113.33 277.34 160.66 275.21C207.99 273.07 216.33 240.87 210.7 223.61C205.07 206.36 185.11 202.79 175.79 209.29C175.79 209.3 175.78 209.3 175.78 209.3" stroke="#231815" stroke-width="8" stroke-linecap="round" stroke-linejoin="round"/>
<path d="M149.21 182.67C144.91 179.56 139.41 176.82 133.96 176.9C131.25 176.93 128.61 177.88 126.61 179.74C123.69 182.5 121.81 186.26 120.94 190.14C118.75 199.72 120.42 217.55 133.67 217.47C139.07 217.44 144.42 214.63 148.44 211.2" fill="#AED8FE"/>
<path d="M149.21 182.67C144.91 179.56 139.41 176.82 133.96 176.9C131.25 176.93 128.61 177.88 126.61 179.74C123.69 182.5 121.81 186.26 120.94 190.14C118.75 199.72 120.42 217.55 133.67 217.47C139.07 217.44 144.42 214.63 148.44 211.2" stroke="#231815" stroke-width="8" stroke-linecap="round" stroke-linejoin="round"/>
<path d="M96.5499 177.46C94.2499 175.84 91.7199 174.59 89.0599 174.02C86.3899 173.47 83.6099 173.82 81.2599 175.22C77.8199 177.26 75.1599 180.53 73.4599 184.11C69.2499 192.99 66.9699 210.75 79.9199 213.56C83.2199 214.27 86.7299 213.92 90.0399 212.96" stroke="#231815" stroke-width="8" stroke-linecap="round" stroke-linejoin="round"/>
<path d="M141.46 80.96C141.46 80.96 145.63 62.35 162.21 65.91C178.75 69.44 174.62 90.82 174.62 90.82" stroke="#231815" stroke-width="8" stroke-linecap="round" stroke-linejoin="round"/>
<path d="M174.62 90.82C174.62 90.82 188.27 78.13 199.16 91.14C209.82 103.87 193.4 118.47 192.8 118.99" stroke="#231815" stroke-width="8" stroke-linecap="round" stroke-linejoin="round"/>
<path d="M192.78 119.01H192.79C193.42 119.02 210.74 119.49 210.75 134.01C210.78 147.19 197.25 150.01 193.21 150.56C192.5 150.65 192.07 150.68 192.07 150.68" stroke="#231815" stroke-width="8" stroke-linecap="round" stroke-linejoin="round"/>
<path d="M193.09 150.5C193.09 150.5 193.13 150.51 193.22 150.56C194.56 151.16 205.72 156.51 202.13 166.86C197.97 178.77 183.16 173.77 183.16 173.77" stroke="#231815" stroke-width="8" stroke-linecap="round" stroke-linejoin="round"/>
<path opacity="0.2" d="M194.49 187.89C232.51 173.42 245.51 127.17 234.01 90.47C223.33 56.39 184.11 30.78 141.47 38.02C98.8299 45.25 92.9199 77.97 92.9199 77.97C92.9199 77.97 24.0299 65.46 15.7399 112.99C4.13993 179.56 86.9799 169.97 86.9799 169.97C86.9799 169.97 80.1599 175.94 85.8099 182.89C91.8999 190.4 135.89 197.19 135.89 197.19C135.89 197.19 181.9 205.87 190.24 199.91C197.06 195.04 194.5 187.9 194.5 187.9L194.49 187.89Z" fill="#2983DB"/>
<path d="M194.49 187.89C232.51 173.42 245.51 127.17 234.01 90.47C223.33 56.39 184.11 30.78 141.47 38.02C98.8299 45.25 92.9199 77.97 92.9199 77.97C92.9199 77.97 24.0299 65.46 15.7399 112.99C4.13993 179.56 86.9799 169.97 86.9799 169.97C86.9799 169.97 80.1599 175.94 85.8099 182.89C91.8999 190.4 135.89 197.19 135.89 197.19C135.89 197.19 181.9 205.87 190.24 199.91C197.06 195.04 194.5 187.9 194.5 187.9L194.49 187.89Z" stroke="#231815" stroke-width="8" stroke-linecap="round" stroke-linejoin="round"/>
<path d="M210.72 138C210.72 138 199.9 169.1 166.64 170.64" stroke="white" stroke-width="8" stroke-linecap="round" stroke-linejoin="round"/>
</svg>
