<svg width="254" height="280" viewBox="0 0 254 280" fill="none" xmlns="http://www.w3.org/2000/svg">
<g clip-path="url(#clip0_7_8)">
<path d="M52.8198 104.92C40.3898 106.06 29.8499 98.7599 27.8699 85.5499C25.8299 71.8999 33.3498 49.3599 56.7598 42.3299C79.3398 35.5599 90.0098 49.4699 90.0098 49.4699C90.0098 49.4699 100.91 41.3099 127 41.3099C153.09 41.3099 163.99 49.4699 163.99 49.4699C163.99 49.4699 174.66 35.5499 197.24 42.3299C220.65 49.3599 228.17 71.8999 226.13 85.5499C224.15 98.7599 213.61 106.06 201.18 104.92C204.36 111.5 208.24 123.96 203 139.67C203 139.67 229.16 165.05 229.16 211.78C229.16 258.51 204.87 276.73 204.87 276.73H49.1296C49.1296 276.73 24.8398 258.51 24.8398 211.78C24.8398 165.05 50.9998 139.67 50.9998 139.67C45.7598 123.96 49.6398 111.5 52.8198 104.92Z" fill="#D6C6B6"/>
<path d="M127 41.3199C100.91 41.3199 90.0099 49.4799 90.0099 49.4799C90.0099 49.4799 79.3399 35.5599 56.7599 42.3399C33.3499 49.3699 25.83 71.9099 27.87 85.5599C29.85 98.7699 40.3899 106.07 52.8199 104.93" stroke="#231815" stroke-width="8" stroke-linecap="round" stroke-linejoin="round"/>
<path d="M77.2798 63.7499C77.2798 63.7499 74.6697 65.4999 71.2097 69.6199C67.8097 73.6599 63.5897 80.0099 60.2297 89.2099" stroke="#231815" stroke-width="8" stroke-linecap="round" stroke-linejoin="round"/>
<path opacity="0.2" d="M76.1097 63.2499C67.2497 59.6999 56.1997 63.0599 51.5297 69.9599C47.6097 75.7599 46.4297 87.3299 58.5697 89.6799L76.1097 63.2499Z" fill="#231815"/>
<path d="M176.72 63.7499C176.72 63.7499 179.33 65.4999 182.79 69.6199C186.19 73.6599 190.41 80.0099 193.77 89.2099" stroke="#231815" stroke-width="8" stroke-linecap="round" stroke-linejoin="round"/>
<path opacity="0.2" d="M177.89 63.2499C186.75 59.6999 197.8 63.0599 202.47 69.9599C206.39 75.7599 207.57 87.3299 195.43 89.6799L177.89 63.2499Z" fill="#231815"/>
<path d="M55.8298 99.7999C55.8298 99.7999 54.4098 101.62 52.8198 104.92C49.6398 111.5 45.7598 123.96 50.9998 139.67C50.9998 139.67 24.8398 165.05 24.8398 211.78C24.8398 258.51 49.1296 276.73 49.1296 276.73H204.87C204.87 276.73 229.16 258.51 229.16 211.78C229.16 165.05 203 139.67 203 139.67C208.24 123.96 204.36 111.5 201.18 104.92C199.59 101.62 198.17 99.7999 198.17 99.7999" stroke="#231815" stroke-width="8" stroke-linecap="round" stroke-linejoin="round"/>
<path d="M127 41.3199C153.09 41.3199 163.99 49.4799 163.99 49.4799C163.99 49.4799 174.66 35.5599 197.24 42.3399C220.65 49.3699 228.17 71.9099 226.13 85.5599C224.15 98.7699 213.61 106.07 201.18 104.93" stroke="#231815" stroke-width="8" stroke-linecap="round" stroke-linejoin="round"/>
<path d="M108.85 82.3999L114.32 82.0699" stroke="#231815" stroke-width="5.26" stroke-linecap="round" stroke-linejoin="round"/>
<path d="M145.15 82.3999L139.68 82.0699" stroke="#231815" stroke-width="5.26" stroke-linecap="round" stroke-linejoin="round"/>
<path d="M82.6597 97.5699C82.6597 97.5699 88.7697 97.6799 93.1997 98.3299" stroke="#231815" stroke-width="4" stroke-linecap="round" stroke-linejoin="round"/>
<path d="M84.0398 108.62C84.0398 108.62 89.1797 107.83 92.9797 107.74" stroke="#231815" stroke-width="4" stroke-linecap="round" stroke-linejoin="round"/>
<path d="M171.35 97.5699C171.35 97.5699 165.24 97.6799 160.81 98.3299" stroke="#231815" stroke-width="4" stroke-linecap="round" stroke-linejoin="round"/>
<path d="M169.97 108.62C169.97 108.62 164.83 107.83 161.03 107.74" stroke="#231815" stroke-width="4" stroke-linecap="round" stroke-linejoin="round"/>
<path d="M181.84 210.21C181.84 240.5 157.29 258.52 127 258.52C96.7098 258.52 72.1597 240.5 72.1597 210.21C72.1597 179.92 96.7098 156.68 127 156.68C157.29 156.68 181.84 179.93 181.84 210.21Z" fill="white"/>
<path d="M65.4897 178.28C65.4897 178.28 71.5597 187.39 81.2197 189.65C90.8797 191.91 97.1098 192.74 99.0098 198.76C100.76 204.29 96.7097 208.03 94.2197 208.57C94.2197 208.57 98.3898 216.82 91.2598 220.87C91.2598 220.87 92.5398 230.61 81.5698 230.95C70.5298 231.29 64.3098 224.96 64.3098 224.96" fill="#D6C6B6"/>
<path d="M65.4897 178.28C65.4897 178.28 71.5597 187.39 81.2197 189.65C90.8797 191.91 97.1098 192.74 99.0098 198.76C100.76 204.29 96.7097 208.03 94.2197 208.57C94.2197 208.57 98.3898 216.82 91.2598 220.87C91.2598 220.87 92.5398 230.61 81.5698 230.95C70.5298 231.29 64.3098 224.96 64.3098 224.96" stroke="#231815" stroke-width="8" stroke-linecap="round" stroke-linejoin="round"/>
<path d="M188.52 178.28C188.52 178.28 182.45 187.39 172.79 189.65C163.13 191.91 156.9 192.74 155 198.76C153.25 204.29 157.3 208.03 159.79 208.57C159.79 208.57 155.62 216.82 162.75 220.87C162.75 220.87 161.47 230.61 172.44 230.95C183.48 231.29 189.7 224.96 189.7 224.96" fill="#D6C6B6"/>
<path d="M188.52 178.28C188.52 178.28 182.45 187.39 172.79 189.65C163.13 191.91 156.9 192.74 155 198.76C153.25 204.29 157.3 208.03 159.79 208.57C159.79 208.57 155.62 216.82 162.75 220.87C162.75 220.87 161.47 230.61 172.44 230.95C183.48 231.29 189.7 224.96 189.7 224.96" stroke="#231815" stroke-width="8" stroke-linecap="round" stroke-linejoin="round"/>
<g opacity="0.2">
<path d="M111.58 95.0899C118.588 95.0899 124.27 89.4084 124.27 82.3999C124.27 75.3914 118.588 69.7099 111.58 69.7099C104.571 69.7099 98.8896 75.3914 98.8896 82.3999C98.8896 89.4084 104.571 95.0899 111.58 95.0899Z" fill="white"/>
<path d="M142.42 95.0899C149.428 95.0899 155.11 89.4084 155.11 82.3999C155.11 75.3914 149.428 69.7099 142.42 69.7099C135.411 69.7099 129.73 75.3914 129.73 82.3999C129.73 89.4084 135.411 95.0899 142.42 95.0899Z" fill="white"/>
</g>
<path d="M111.58 95.0899C118.588 95.0899 124.27 89.4084 124.27 82.3999C124.27 75.3914 118.588 69.7099 111.58 69.7099C104.571 69.7099 98.8896 75.3914 98.8896 82.3999C98.8896 89.4084 104.571 95.0899 111.58 95.0899Z" stroke="#231815" stroke-width="4.21" stroke-linecap="round" stroke-linejoin="round"/>
<path d="M142.42 95.0899C149.428 95.0899 155.11 89.4084 155.11 82.3999C155.11 75.3914 149.428 69.7099 142.42 69.7099C135.411 69.7099 129.73 75.3914 129.73 82.3999C129.73 89.4084 135.411 95.0899 142.42 95.0899Z" stroke="#231815" stroke-width="4.21" stroke-linecap="round" stroke-linejoin="round"/>
<path d="M124.14 79.9199C124.14 79.9199 127 78.7699 129.86 79.9199" stroke="#231815" stroke-width="4.21" stroke-linecap="round" stroke-linejoin="round"/>
<path d="M127 103.26C127 108.81 122.5 112.64 116.95 112.64C111.4 112.64 106.9 108.81 106.9 103.26C106.9 97.7099 111.4 93.2099 116.95 93.2099C127.26 93.2099 127 97.7099 127 103.26Z" fill="white" stroke="#231815" stroke-width="5.26" stroke-linecap="round" stroke-linejoin="round"/>
<path d="M147.11 103.26C147.11 108.81 142.61 112.64 137.06 112.64C131.51 112.64 127.01 108.81 127.01 103.26C127.01 97.7099 127.01 93.2099 137.06 93.2099C142.61 93.2099 147.11 97.7099 147.11 103.26Z" fill="white" stroke="#231815" stroke-width="5.26" stroke-linecap="round" stroke-linejoin="round"/>
<path d="M135.88 94.6399C135.88 98.4199 132.65 102.28 127 102.28C121.35 102.28 118.12 98.4199 118.12 94.6399C118.12 90.8599 121.35 87.7899 127 87.7899C132.65 87.7899 135.88 90.8499 135.88 94.6399Z" fill="#231815"/>
</g>
<defs>
<clipPath id="clip0_7_8">
<rect width="254" height="280" fill="white"/>
</clipPath>
</defs>
</svg>
