<svg width="210" height="280" viewBox="0 0 210 280" fill="none" xmlns="http://www.w3.org/2000/svg">
<g clip-path="url(#clip0_1_302)">
<path d="M30.8198 104.92C18.3898 106.06 7.84987 98.7599 5.86987 85.5499C3.82987 71.8999 11.3498 49.3599 34.7598 42.3299C57.3398 35.5599 68.0098 49.4699 68.0098 49.4699C68.0098 49.4699 78.9098 41.3099 105 41.3099C131.09 41.3099 141.99 49.4699 141.99 49.4699C141.99 49.4699 152.66 35.5499 175.24 42.3299C198.65 49.3599 206.17 71.8999 204.13 85.5499C202.15 98.7599 191.61 106.06 179.18 104.92C182.36 111.5 186.24 123.96 181 139.67C181 139.67 207.16 165.05 207.16 211.78C207.16 258.51 182.87 276.73 182.87 276.73H27.1296C27.1296 276.73 2.83984 258.51 2.83984 211.78C2.83984 165.05 28.9998 139.67 28.9998 139.67C23.7598 123.96 27.6398 111.5 30.8198 104.92Z" fill="#D6C6B6"/>
<path d="M105 41.32C78.9098 41.32 68.0099 49.48 68.0099 49.48C68.0099 49.48 57.3399 35.56 34.7599 42.34C11.3499 49.37 3.82996 71.91 5.86996 85.56C7.84996 98.77 18.3899 106.07 30.8199 104.93" stroke="#231815" stroke-width="8" stroke-linecap="round" stroke-linejoin="round"/>
<path d="M55.2798 63.7499C55.2798 63.7499 52.6697 65.4999 49.2097 69.6199C45.8097 73.6599 41.5897 80.0099 38.2297 89.2099" stroke="#231815" stroke-width="8" stroke-linecap="round" stroke-linejoin="round"/>
<path opacity="0.2" d="M54.1097 63.25C45.2497 59.7 34.1997 63.06 29.5297 69.96C25.6097 75.76 24.4297 87.33 36.5697 89.68L54.1097 63.25Z" fill="#231815"/>
<path d="M154.72 63.7499C154.72 63.7499 157.33 65.4999 160.79 69.6199C164.19 73.6599 168.41 80.0099 171.77 89.2099" stroke="#231815" stroke-width="8" stroke-linecap="round" stroke-linejoin="round"/>
<path opacity="0.2" d="M155.89 63.25C164.75 59.7 175.8 63.06 180.47 69.96C184.39 75.76 185.57 87.33 173.43 89.68L155.89 63.25Z" fill="#231815"/>
<path d="M33.8298 99.7999C33.8298 99.7999 32.4098 101.62 30.8198 104.92C27.6398 111.5 23.7598 123.96 28.9998 139.67C28.9998 139.67 2.83984 165.05 2.83984 211.78C2.83984 258.51 27.1296 276.73 27.1296 276.73H182.87C182.87 276.73 207.16 258.51 207.16 211.78C207.16 165.05 181 139.67 181 139.67C186.24 123.96 182.36 111.5 179.18 104.92C177.59 101.62 176.17 99.7999 176.17 99.7999" stroke="#231815" stroke-width="8" stroke-linecap="round" stroke-linejoin="round"/>
<path d="M105 41.32C131.09 41.32 141.99 49.48 141.99 49.48C141.99 49.48 152.66 35.56 175.24 42.34C198.65 49.37 206.17 71.91 204.13 85.56C202.15 98.77 191.61 106.07 179.18 104.93" stroke="#231815" stroke-width="8" stroke-linecap="round" stroke-linejoin="round"/>
<path d="M86.8499 82.3999L92.3198 82.0699" stroke="#231815" stroke-width="5.26" stroke-linecap="round" stroke-linejoin="round"/>
<path d="M123.15 82.3999L117.68 82.0699" stroke="#231815" stroke-width="5.26" stroke-linecap="round" stroke-linejoin="round"/>
<path d="M60.6597 97.5699C60.6597 97.5699 66.7697 97.6799 71.1997 98.3299" stroke="#231815" stroke-width="4" stroke-linecap="round" stroke-linejoin="round"/>
<path d="M62.0398 108.62C62.0398 108.62 67.1797 107.83 70.9797 107.74" stroke="#231815" stroke-width="4" stroke-linecap="round" stroke-linejoin="round"/>
<path d="M149.35 97.5699C149.35 97.5699 143.24 97.6799 138.81 98.3299" stroke="#231815" stroke-width="4" stroke-linecap="round" stroke-linejoin="round"/>
<path d="M147.97 108.62C147.97 108.62 142.83 107.83 139.03 107.74" stroke="#231815" stroke-width="4" stroke-linecap="round" stroke-linejoin="round"/>
<path d="M159.84 210.21C159.84 240.5 135.29 258.52 105 258.52C74.7098 258.52 50.1597 240.5 50.1597 210.21C50.1597 179.92 74.7098 156.68 105 156.68C135.29 156.68 159.84 179.93 159.84 210.21Z" fill="white"/>
<path d="M43.4897 178.28C43.4897 178.28 49.5597 187.39 59.2197 189.65C68.8797 191.91 75.1098 192.74 77.0098 198.76C78.7598 204.29 74.7097 208.03 72.2197 208.57C72.2197 208.57 76.3898 216.82 69.2598 220.87C69.2598 220.87 70.5398 230.61 59.5698 230.95C48.5298 231.29 42.3098 224.96 42.3098 224.96" fill="#D6C6B6"/>
<path d="M43.4897 178.28C43.4897 178.28 49.5597 187.39 59.2197 189.65C68.8797 191.91 75.1098 192.74 77.0098 198.76C78.7598 204.29 74.7097 208.03 72.2197 208.57C72.2197 208.57 76.3898 216.82 69.2598 220.87C69.2598 220.87 70.5398 230.61 59.5698 230.95C48.5298 231.29 42.3098 224.96 42.3098 224.96" stroke="#231815" stroke-width="8" stroke-linecap="round" stroke-linejoin="round"/>
<path d="M166.52 178.28C166.52 178.28 160.45 187.39 150.79 189.65C141.13 191.91 134.9 192.74 133 198.76C131.25 204.29 135.3 208.03 137.79 208.57C137.79 208.57 133.62 216.82 140.75 220.87C140.75 220.87 139.47 230.61 150.44 230.95C161.48 231.29 167.7 224.96 167.7 224.96" fill="#D6C6B6"/>
<path d="M166.52 178.28C166.52 178.28 160.45 187.39 150.79 189.65C141.13 191.91 134.9 192.74 133 198.76C131.25 204.29 135.3 208.03 137.79 208.57C137.79 208.57 133.62 216.82 140.75 220.87C140.75 220.87 139.47 230.61 150.44 230.95C161.48 231.29 167.7 224.96 167.7 224.96" stroke="#231815" stroke-width="8" stroke-linecap="round" stroke-linejoin="round"/>
<g opacity="0.2">
<path d="M89.5798 95.09C96.5883 95.09 102.27 89.4084 102.27 82.3999C102.27 75.3915 96.5883 69.71 89.5798 69.71C82.5713 69.71 76.8896 75.3915 76.8896 82.3999C76.8896 89.4084 82.5713 95.09 89.5798 95.09Z" fill="white"/>
<path d="M120.42 95.09C127.428 95.09 133.11 89.4084 133.11 82.3999C133.11 75.3915 127.428 69.71 120.42 69.71C113.411 69.71 107.73 75.3915 107.73 82.3999C107.73 89.4084 113.411 95.09 120.42 95.09Z" fill="white"/>
</g>
<path d="M89.5798 95.09C96.5883 95.09 102.27 89.4084 102.27 82.3999C102.27 75.3915 96.5883 69.71 89.5798 69.71C82.5713 69.71 76.8896 75.3915 76.8896 82.3999C76.8896 89.4084 82.5713 95.09 89.5798 95.09Z" stroke="#231815" stroke-width="4.21" stroke-linecap="round" stroke-linejoin="round"/>
<path d="M120.42 95.09C127.428 95.09 133.11 89.4084 133.11 82.3999C133.11 75.3915 127.428 69.71 120.42 69.71C113.411 69.71 107.73 75.3915 107.73 82.3999C107.73 89.4084 113.411 95.09 120.42 95.09Z" stroke="#231815" stroke-width="4.21" stroke-linecap="round" stroke-linejoin="round"/>
<path d="M102.14 79.9199C102.14 79.9199 105 78.7699 107.86 79.9199" stroke="#231815" stroke-width="4.21" stroke-linecap="round" stroke-linejoin="round"/>
<path d="M105 103.26C105 108.81 100.5 112.64 94.9497 112.64C89.3997 112.64 84.8997 108.81 84.8997 103.26C84.8997 97.71 89.3997 93.21 94.9497 93.21C105.26 93.21 105 97.71 105 103.26Z" fill="white" stroke="#231815" stroke-width="5.26" stroke-linecap="round" stroke-linejoin="round"/>
<path d="M125.11 103.26C125.11 108.81 120.61 112.64 115.06 112.64C109.51 112.64 105.01 108.81 105.01 103.26C105.01 97.71 105.01 93.21 115.06 93.21C120.61 93.21 125.11 97.71 125.11 103.26Z" fill="white" stroke="#231815" stroke-width="5.26" stroke-linecap="round" stroke-linejoin="round"/>
<path d="M113.88 94.6399C113.88 98.4199 110.65 102.28 105 102.28C99.3498 102.28 96.1199 98.4199 96.1199 94.6399C96.1199 90.8599 99.3498 87.7899 105 87.7899C110.65 87.7899 113.88 90.8499 113.88 94.6399Z" fill="#231815"/>
</g>
<defs>
<clipPath id="clip0_1_302">
<rect width="210" height="280" fill="white"/>
</clipPath>
</defs>
</svg>
