<svg width="254" height="281" viewBox="0 0 254 281" fill="none" xmlns="http://www.w3.org/2000/svg">
<path d="M215.778 92.6221C224.998 106.932 233.748 120.632 231.328 138.582C227.818 164.622 201.928 180.582 159.298 185.732C149.238 186.962 138.228 187.572 126.368 187.572C114.508 187.572 103.908 186.972 93.9976 185.812C51.0476 180.742 24.9376 164.742 21.4076 138.592C18.9876 120.652 27.7476 106.942 36.9676 92.6321C42.1176 84.6321 43.8876 76.0021 51.0076 65.9221C58.0676 55.9121 70.0876 50.8821 82.6476 53.8621C89.4176 55.4721 94.4076 58.8421 100.078 60.9321C109.768 64.5021 120.028 64.5921 126.298 64.5921H126.448C132.718 64.5921 142.988 64.5021 152.678 60.9321C158.348 58.8321 163.338 55.4721 170.098 53.8621C182.668 50.8821 194.678 55.9121 201.748 65.9221C208.858 76.0121 210.628 84.6321 215.788 92.6321L215.778 92.6221Z" fill="#FFD047"/>
<path d="M176.618 225.112C179.348 232.102 183.618 242.832 176.418 248.032C171.278 251.752 162.798 250.912 160.168 244.702H160.148C160.458 229.682 157.728 217.522 155.648 210.562H155.658L168.838 205.152C172.238 213.252 175.088 221.202 176.628 225.112H176.618Z" fill="#FFD047"/>
<path d="M155.638 210.562C157.718 217.522 160.448 229.682 160.138 244.702C160.048 248.932 159.728 253.382 159.088 258.012H94.2275C93.5775 253.382 93.2576 248.932 93.1776 244.702C92.8676 229.682 95.5976 217.522 97.6776 210.562H97.6676L84.4875 205.152C87.4175 198.152 90.7275 191.032 93.9375 186.342L93.9976 185.792C103.908 186.962 114.728 187.552 126.368 187.552C138.008 187.552 149.238 186.942 159.298 185.712L159.368 186.332C162.578 191.022 165.898 198.142 168.818 205.142L155.638 210.552H155.628L155.638 210.562Z" fill="#297CCC"/>
<path d="M131.858 258.022H154.028C154.028 258.022 153.268 267.922 151.288 276.302H131.858V258.022Z" fill="#FFD047"/>
<path d="M121.448 258.022V276.302H102.008C100.018 267.932 99.2676 258.022 99.2676 258.022H121.448Z" fill="#FFD047"/>
<path d="M97.6676 210.562C95.5876 217.522 92.8576 229.682 93.1676 244.702H93.1476C90.5176 250.902 82.0276 251.752 76.8976 248.032C69.6976 242.832 73.9675 232.102 76.6975 225.112C78.2375 221.202 81.0876 213.252 84.4876 205.152L97.6676 210.562Z" fill="#FFD047"/>
<path d="M126.438 64.5821C132.708 64.5821 142.978 64.4921 152.668 60.9221C158.338 58.8221 163.328 55.4621 170.088 53.8521C182.658 50.8721 194.668 55.9021 201.738 65.9121C208.848 76.0021 210.618 84.6221 215.778 92.6221C224.998 106.932 233.748 120.632 231.328 138.582C227.818 164.622 201.928 180.582 159.298 185.732C149.238 186.962 138.228 187.572 126.368 187.572C114.508 187.572 103.908 186.972 93.9976 185.812C51.0476 180.742 24.9376 164.742 21.4076 138.592C18.9876 120.652 27.7476 106.942 36.9676 92.6321C42.1176 84.6321 43.8876 76.0021 51.0076 65.9221C58.0676 55.9121 70.0876 50.8821 82.6476 53.8621C89.4176 55.4721 94.4076 58.8421 100.078 60.9321C109.768 64.5021 120.028 64.5921 126.298 64.5921" stroke="#231815" stroke-width="8" stroke-linecap="round" stroke-linejoin="round"/>
<path d="M99.8876 204.122C99.8876 204.122 98.8877 206.432 97.6677 210.562C95.5877 217.522 92.8577 229.682 93.1677 244.702C93.2577 248.932 93.5776 253.382 94.2176 258.012H126.648" stroke="#231815" stroke-width="8" stroke-linecap="round" stroke-linejoin="round"/>
<path d="M93.9375 186.342C90.7275 191.032 87.4076 198.152 84.4876 205.152C81.0876 213.252 78.2375 221.202 76.6975 225.112C73.9675 232.102 69.6976 242.832 76.8976 248.032C82.0376 251.752 90.5176 250.912 93.1476 244.702" stroke="#231815" stroke-width="8" stroke-linecap="round" stroke-linejoin="round"/>
<path d="M99.2676 258.022C99.2676 258.022 100.028 267.922 102.008 276.302H121.448V258.022" stroke="#231815" stroke-width="8" stroke-linecap="round" stroke-linejoin="round"/>
<path d="M83.4276 236.832C83.4276 236.832 83.5676 241.852 88.2776 241.892C92.3976 241.912 93.1376 238.642 93.1376 238.642" stroke="#231815" stroke-width="8" stroke-linecap="round" stroke-linejoin="round"/>
<path d="M153.408 204.122C153.408 204.122 154.408 206.432 155.628 210.562C157.708 217.522 160.438 229.682 160.128 244.702C160.038 248.932 159.718 253.382 159.078 258.012H126.648V247.542" stroke="#231815" stroke-width="8" stroke-linecap="round" stroke-linejoin="round"/>
<path d="M159.368 186.342C162.578 191.032 165.898 198.152 168.818 205.152C172.218 213.252 175.068 221.202 176.608 225.112C179.338 232.102 183.608 242.832 176.408 248.032C171.268 251.752 162.788 250.912 160.158 244.702" stroke="#231815" stroke-width="8" stroke-linecap="round" stroke-linejoin="round"/>
<path d="M154.028 258.022C154.028 258.022 153.268 267.922 151.288 276.302H131.858V258.022" stroke="#231815" stroke-width="8" stroke-linecap="round" stroke-linejoin="round"/>
<path d="M169.878 236.832C169.878 236.832 169.738 241.852 165.028 241.892C160.908 241.912 160.168 238.642 160.168 238.642" stroke="#231815" stroke-width="8" stroke-linecap="round" stroke-linejoin="round"/>
<path d="M84.4775 205.152L97.6576 210.562" stroke="#231815" stroke-width="8" stroke-linecap="round" stroke-linejoin="round"/>
<path d="M168.818 205.152L155.648 210.562" stroke="#231815" stroke-width="8" stroke-linecap="round" stroke-linejoin="round"/>
<path d="M120.308 116.832C120.468 128.352 106.348 131.902 89.0976 132.142C71.8476 132.382 57.9976 129.212 57.8376 117.692C57.6776 106.172 71.5376 96.6321 88.7776 96.4021C106.018 96.1721 120.138 105.312 120.298 116.842L120.308 116.832Z" fill="white" stroke="#231815" stroke-width="7" stroke-linecap="round" stroke-linejoin="round"/>
<path d="M89.1075 132.142C99.3414 132.142 107.638 124.141 107.638 114.272C107.638 104.403 99.3414 96.4021 89.1075 96.4021C78.8737 96.4021 70.5775 104.403 70.5775 114.272C70.5775 124.141 78.8737 132.142 89.1075 132.142Z" fill="#231815"/>
<path d="M89.5976 104.552C91.7476 107.132 90.3276 110.452 87.3676 113.212C84.2576 116.112 79.9476 116.992 77.7876 114.412C75.6376 111.832 76.5276 107.542 79.7976 104.812C83.0576 102.092 87.4476 101.972 89.5976 104.542V104.552Z" fill="white"/>
<path d="M194.888 116.832C195.048 128.352 180.928 131.902 163.678 132.142C146.428 132.382 132.578 129.212 132.418 117.692C132.258 106.172 146.118 96.6321 163.358 96.4021C180.608 96.1621 194.718 105.312 194.878 116.842L194.888 116.832Z" fill="white" stroke="#231815" stroke-width="7" stroke-linecap="round" stroke-linejoin="round"/>
<path d="M163.678 132.142C173.911 132.142 182.208 124.141 182.208 114.272C182.208 104.403 173.911 96.4021 163.678 96.4021C153.444 96.4021 145.148 104.403 145.148 114.272C145.148 124.141 153.444 132.142 163.678 132.142Z" fill="#231815"/>
<path d="M164.168 104.552C166.318 107.132 164.898 110.452 161.938 113.212C158.828 116.112 154.518 116.992 152.358 114.412C150.208 111.832 151.098 107.542 154.368 104.812C157.628 102.092 162.018 101.972 164.168 104.542V104.552Z" fill="white"/>
<path d="M147.568 147.712C143.998 155.502 136.598 159.052 126.368 159.052C116.138 159.052 108.738 155.502 105.168 147.712" stroke="#231815" stroke-width="7" stroke-linecap="round" stroke-linejoin="round"/>
<path d="M135.248 214.742C135.328 214.872 135.398 215.002 135.478 215.122C136.368 216.532 137.248 217.952 138.138 219.362C138.158 219.392 138.198 219.422 138.178 219.462C138.158 219.492 138.108 219.472 138.078 219.472C136.518 219.472 134.958 219.472 133.408 219.472C133.318 219.472 133.278 219.442 133.238 219.372C132.698 218.402 132.148 217.432 131.598 216.462C131.578 216.422 131.548 216.372 131.518 216.332C131.468 216.232 131.418 216.142 131.358 216.042C131.148 215.672 130.958 215.292 130.688 214.942C130.568 214.752 130.428 214.562 130.248 214.412C130.088 214.282 129.928 214.142 129.708 214.142C129.318 214.142 128.938 214.142 128.548 214.142C128.488 214.142 128.478 214.162 128.478 214.212C128.478 214.492 128.478 214.782 128.478 215.062C128.478 215.672 128.478 216.282 128.478 216.902C128.478 217.262 128.478 217.622 128.478 217.982C128.478 218.442 128.478 218.902 128.478 219.362C128.478 219.442 128.458 219.462 128.368 219.462C126.988 219.462 125.608 219.462 124.228 219.462C124.138 219.462 124.118 219.432 124.118 219.352C124.118 218.572 124.118 217.792 124.118 217.012C124.118 216.972 124.118 216.922 124.118 216.882C124.118 216.092 124.118 215.302 124.118 214.512C124.118 211.682 124.118 208.852 124.118 206.022C124.118 205.862 124.088 205.882 124.268 205.882C127.008 205.882 129.758 205.882 132.498 205.882C133.208 205.882 133.898 205.982 134.558 206.252C134.948 206.412 135.318 206.602 135.648 206.862C136.118 207.232 136.448 207.692 136.628 208.242C136.908 209.082 136.908 209.922 136.658 210.762C136.448 211.482 136.008 212.062 135.378 212.512C134.828 212.902 134.208 213.152 133.548 213.292C133.398 213.322 133.238 213.342 133.078 213.372C133.098 213.382 133.108 213.392 133.118 213.392C133.608 213.542 134.098 213.702 134.548 213.962C134.708 214.072 134.868 214.192 134.988 214.352C135.088 214.472 135.148 214.612 135.238 214.732L135.248 214.742ZM129.888 211.142C130.298 211.142 130.698 211.142 131.108 211.142C131.438 211.142 131.738 211.052 131.998 210.842C132.338 210.562 132.408 210.192 132.358 209.782C132.318 209.452 132.178 209.172 131.858 208.992C131.648 208.872 131.408 208.822 131.158 208.822C130.308 208.822 129.458 208.822 128.608 208.822C128.528 208.822 128.508 208.842 128.508 208.912C128.508 209.622 128.508 210.332 128.508 211.042C128.508 211.112 128.528 211.132 128.608 211.132C129.038 211.132 129.458 211.132 129.888 211.132V211.142Z" fill="white"/>
<path d="M135.248 214.742C135.158 214.622 135.098 214.482 134.998 214.362C134.878 214.212 134.717 214.092 134.557 213.972C134.857 213.822 135.148 213.672 135.418 213.492C136.248 212.952 136.908 212.262 137.278 211.372C137.598 210.612 137.688 209.812 137.598 209.002C137.478 207.932 137.038 207.012 136.238 206.262C135.598 205.662 134.838 205.242 134.018 204.922C132.778 204.452 131.488 204.222 130.168 204.112C129.238 204.032 128.318 204.022 127.388 204.072C126.268 204.132 125.168 204.302 124.088 204.602C123.168 204.852 122.288 205.202 121.458 205.672C120.618 206.152 119.878 206.742 119.328 207.512C118.938 208.062 118.698 208.662 118.638 209.322C118.618 209.582 118.637 209.842 118.687 210.102C118.827 210.822 119.148 211.452 119.648 212.012C119.898 212.292 120.178 212.552 120.478 212.792C121.058 213.252 121.698 213.612 122.378 213.912C122.948 214.162 123.538 214.372 124.138 214.532C124.138 215.322 124.138 216.112 124.138 216.902C123.088 216.782 122.067 216.582 121.057 216.292C119.597 215.872 118.228 215.272 116.998 214.412C115.828 213.612 114.858 212.632 114.228 211.392C113.768 210.482 113.568 209.532 113.648 208.522C113.738 207.362 114.198 206.332 114.928 205.402C115.798 204.272 116.928 203.432 118.208 202.752C119.488 202.072 120.848 201.612 122.278 201.302C122.678 201.212 123.068 201.142 123.478 201.092C123.708 201.062 123.938 201.042 124.158 201.012C125.068 200.882 125.978 200.862 126.898 200.882C127.388 200.882 127.868 200.922 128.358 200.972C128.728 201.012 129.098 201.052 129.468 201.112C130.138 201.222 130.798 201.362 131.458 201.542C131.988 201.682 132.508 201.842 133.018 202.052C133.398 202.212 133.778 202.382 134.158 202.552C134.808 202.852 135.408 203.212 135.978 203.622C136.388 203.912 136.768 204.232 137.128 204.582C137.838 205.292 138.418 206.072 138.778 207.002C139.378 208.572 139.258 210.092 138.458 211.582C137.948 212.532 137.218 213.312 136.368 213.992C136.018 214.262 135.658 214.522 135.278 214.752L135.248 214.742Z" fill="#B1B2B6"/>
<path d="M130.688 214.952C130.947 215.292 131.138 215.682 131.358 216.052C131.408 216.142 131.458 216.242 131.518 216.342C130.888 216.522 130.248 216.662 129.608 216.762C129.238 216.822 128.868 216.872 128.488 216.912C128.488 216.302 128.488 215.692 128.488 215.072C129.228 215.072 129.958 215.032 130.698 214.952H130.688Z" fill="#B1B2B6"/>
</svg>
