<svg width="219" height="281" viewBox="0 0 219 281" fill="none" xmlns="http://www.w3.org/2000/svg">
<path d="M198.778 92.6221C207.998 106.932 216.748 120.632 214.328 138.582C210.818 164.622 184.928 180.582 142.298 185.732C132.238 186.962 121.228 187.572 109.368 187.572C97.5076 187.572 86.9076 186.972 76.9976 185.812C34.0476 180.742 7.93765 164.742 4.40765 138.592C1.98765 120.652 10.7476 106.942 19.9676 92.6321C25.1176 84.6321 26.8876 76.0021 34.0076 65.9221C41.0676 55.9121 53.0876 50.8821 65.6476 53.8621C72.4176 55.4721 77.4076 58.8421 83.0776 60.9321C92.7676 64.5021 103.028 64.5921 109.298 64.5921H109.448C115.718 64.5921 125.988 64.5021 135.678 60.9321C141.348 58.8321 146.338 55.4721 153.098 53.8621C165.668 50.8821 177.678 55.9121 184.748 65.9221C191.858 76.0121 193.628 84.6321 198.788 92.6321L198.778 92.6221Z" fill="#FFD047"/>
<path d="M159.618 225.112C162.348 232.102 166.618 242.832 159.418 248.032C154.278 251.752 145.798 250.912 143.168 244.702H143.148C143.458 229.682 140.728 217.522 138.648 210.562H138.658L151.838 205.152C155.238 213.252 158.088 221.202 159.628 225.112H159.618Z" fill="#FFD047"/>
<path d="M138.638 210.562C140.718 217.522 143.448 229.682 143.138 244.702C143.048 248.932 142.728 253.382 142.088 258.012H77.2275C76.5775 253.382 76.2576 248.932 76.1776 244.702C75.8676 229.682 78.5976 217.522 80.6776 210.562H80.6676L67.4875 205.152C70.4175 198.152 73.7275 191.032 76.9375 186.342L76.9976 185.792C86.9076 186.962 97.7276 187.552 109.368 187.552C121.008 187.552 132.238 186.942 142.298 185.712L142.368 186.332C145.578 191.022 148.898 198.142 151.818 205.142L138.638 210.552H138.628L138.638 210.562Z" fill="#297CCC"/>
<path d="M114.858 258.022H137.028C137.028 258.022 136.268 267.922 134.288 276.302H114.858V258.022Z" fill="#FFD047"/>
<path d="M104.448 258.022V276.302H85.0076C83.0176 267.932 82.2676 258.022 82.2676 258.022H104.448Z" fill="#FFD047"/>
<path d="M80.6676 210.562C78.5876 217.522 75.8576 229.682 76.1676 244.702H76.1476C73.5176 250.902 65.0276 251.752 59.8976 248.032C52.6976 242.832 56.9675 232.102 59.6975 225.112C61.2375 221.202 64.0876 213.252 67.4876 205.152L80.6676 210.562Z" fill="#FFD047"/>
<path d="M109.438 64.5821C115.708 64.5821 125.978 64.4921 135.668 60.9221C141.338 58.8221 146.328 55.4621 153.088 53.8521C165.658 50.8721 177.668 55.9021 184.738 65.9121C191.848 76.0021 193.618 84.6221 198.778 92.6221C207.998 106.932 216.748 120.632 214.328 138.582C210.818 164.622 184.928 180.582 142.298 185.732C132.238 186.962 121.228 187.572 109.368 187.572C97.5076 187.572 86.9076 186.972 76.9976 185.812C34.0476 180.742 7.93765 164.742 4.40765 138.592C1.98765 120.652 10.7476 106.942 19.9676 92.6321C25.1176 84.6321 26.8876 76.0021 34.0076 65.9221C41.0676 55.9121 53.0876 50.8821 65.6476 53.8621C72.4176 55.4721 77.4076 58.8421 83.0776 60.9321C92.7676 64.5021 103.028 64.5921 109.298 64.5921" stroke="#231815" stroke-width="8" stroke-linecap="round" stroke-linejoin="round"/>
<path d="M82.8876 204.122C82.8876 204.122 81.8877 206.432 80.6677 210.562C78.5877 217.522 75.8577 229.682 76.1677 244.702C76.2577 248.932 76.5776 253.382 77.2176 258.012H109.648" stroke="#231815" stroke-width="8" stroke-linecap="round" stroke-linejoin="round"/>
<path d="M76.9375 186.342C73.7275 191.032 70.4076 198.152 67.4876 205.152C64.0876 213.252 61.2375 221.202 59.6975 225.112C56.9675 232.102 52.6976 242.832 59.8976 248.032C65.0376 251.752 73.5176 250.912 76.1476 244.702" stroke="#231815" stroke-width="8" stroke-linecap="round" stroke-linejoin="round"/>
<path d="M82.2676 258.022C82.2676 258.022 83.0276 267.922 85.0076 276.302H104.448V258.022" stroke="#231815" stroke-width="8" stroke-linecap="round" stroke-linejoin="round"/>
<path d="M66.4276 236.832C66.4276 236.832 66.5676 241.852 71.2776 241.892C75.3976 241.912 76.1376 238.642 76.1376 238.642" stroke="#231815" stroke-width="8" stroke-linecap="round" stroke-linejoin="round"/>
<path d="M136.408 204.122C136.408 204.122 137.408 206.432 138.628 210.562C140.708 217.522 143.438 229.682 143.128 244.702C143.038 248.932 142.718 253.382 142.078 258.012H109.648V247.542" stroke="#231815" stroke-width="8" stroke-linecap="round" stroke-linejoin="round"/>
<path d="M142.368 186.342C145.578 191.032 148.898 198.152 151.818 205.152C155.218 213.252 158.068 221.202 159.608 225.112C162.338 232.102 166.608 242.832 159.408 248.032C154.268 251.752 145.788 250.912 143.158 244.702" stroke="#231815" stroke-width="8" stroke-linecap="round" stroke-linejoin="round"/>
<path d="M137.028 258.022C137.028 258.022 136.268 267.922 134.288 276.302H114.858V258.022" stroke="#231815" stroke-width="8" stroke-linecap="round" stroke-linejoin="round"/>
<path d="M152.878 236.832C152.878 236.832 152.738 241.852 148.028 241.892C143.908 241.912 143.168 238.642 143.168 238.642" stroke="#231815" stroke-width="8" stroke-linecap="round" stroke-linejoin="round"/>
<path d="M67.4775 205.152L80.6576 210.562" stroke="#231815" stroke-width="8" stroke-linecap="round" stroke-linejoin="round"/>
<path d="M151.818 205.152L138.648 210.562" stroke="#231815" stroke-width="8" stroke-linecap="round" stroke-linejoin="round"/>
<path d="M103.308 116.832C103.468 128.352 89.3476 131.902 72.0976 132.142C54.8476 132.382 40.9976 129.212 40.8376 117.692C40.6776 106.172 54.5376 96.6321 71.7776 96.4021C89.0176 96.1721 103.138 105.312 103.298 116.842L103.308 116.832Z" fill="white" stroke="#231815" stroke-width="7" stroke-linecap="round" stroke-linejoin="round"/>
<path d="M72.1075 132.142C82.3414 132.142 90.6376 124.141 90.6376 114.272C90.6376 104.403 82.3414 96.4021 72.1075 96.4021C61.8737 96.4021 53.5775 104.403 53.5775 114.272C53.5775 124.141 61.8737 132.142 72.1075 132.142Z" fill="#231815"/>
<path d="M72.5976 104.552C74.7476 107.132 73.3276 110.452 70.3676 113.212C67.2576 116.112 62.9476 116.992 60.7876 114.412C58.6376 111.832 59.5276 107.542 62.7976 104.812C66.0576 102.092 70.4476 101.972 72.5976 104.542V104.552Z" fill="white"/>
<path d="M177.888 116.832C178.048 128.352 163.928 131.902 146.678 132.142C129.428 132.382 115.578 129.212 115.418 117.692C115.258 106.172 129.118 96.6321 146.358 96.4021C163.608 96.1621 177.718 105.312 177.878 116.842L177.888 116.832Z" fill="white" stroke="#231815" stroke-width="7" stroke-linecap="round" stroke-linejoin="round"/>
<path d="M146.678 132.142C156.911 132.142 165.208 124.141 165.208 114.272C165.208 104.403 156.911 96.4021 146.678 96.4021C136.444 96.4021 128.148 104.403 128.148 114.272C128.148 124.141 136.444 132.142 146.678 132.142Z" fill="#231815"/>
<path d="M147.168 104.552C149.318 107.132 147.898 110.452 144.938 113.212C141.828 116.112 137.518 116.992 135.358 114.412C133.208 111.832 134.098 107.542 137.368 104.812C140.628 102.092 145.018 101.972 147.168 104.542V104.552Z" fill="white"/>
<path d="M130.568 147.712C126.998 155.502 119.598 159.052 109.368 159.052C99.1376 159.052 91.7376 155.502 88.1676 147.712" stroke="#231815" stroke-width="7" stroke-linecap="round" stroke-linejoin="round"/>
<path d="M118.248 214.742C118.328 214.872 118.398 215.002 118.478 215.122C119.368 216.532 120.248 217.952 121.138 219.362C121.158 219.392 121.198 219.422 121.178 219.462C121.158 219.492 121.108 219.472 121.078 219.472C119.518 219.472 117.958 219.472 116.408 219.472C116.318 219.472 116.278 219.442 116.238 219.372C115.698 218.402 115.148 217.432 114.598 216.462C114.578 216.422 114.548 216.372 114.518 216.332C114.468 216.232 114.418 216.142 114.358 216.042C114.148 215.672 113.958 215.292 113.688 214.942C113.568 214.752 113.428 214.562 113.248 214.412C113.088 214.282 112.928 214.142 112.708 214.142C112.318 214.142 111.938 214.142 111.548 214.142C111.488 214.142 111.478 214.162 111.478 214.212C111.478 214.492 111.478 214.782 111.478 215.062C111.478 215.672 111.478 216.282 111.478 216.902C111.478 217.262 111.478 217.622 111.478 217.982C111.478 218.442 111.478 218.902 111.478 219.362C111.478 219.442 111.458 219.462 111.368 219.462C109.988 219.462 108.608 219.462 107.228 219.462C107.138 219.462 107.118 219.432 107.118 219.352C107.118 218.572 107.118 217.792 107.118 217.012C107.118 216.972 107.118 216.922 107.118 216.882C107.118 216.092 107.118 215.302 107.118 214.512C107.118 211.682 107.118 208.852 107.118 206.022C107.118 205.862 107.088 205.882 107.268 205.882C110.008 205.882 112.758 205.882 115.498 205.882C116.208 205.882 116.898 205.982 117.558 206.252C117.948 206.412 118.318 206.602 118.648 206.862C119.118 207.232 119.448 207.692 119.628 208.242C119.908 209.082 119.908 209.922 119.658 210.762C119.448 211.482 119.008 212.062 118.378 212.512C117.828 212.902 117.208 213.152 116.548 213.292C116.398 213.322 116.238 213.342 116.078 213.372C116.098 213.382 116.108 213.392 116.118 213.392C116.608 213.542 117.098 213.702 117.548 213.962C117.708 214.072 117.868 214.192 117.988 214.352C118.088 214.472 118.148 214.612 118.238 214.732L118.248 214.742ZM112.888 211.142C113.298 211.142 113.698 211.142 114.108 211.142C114.438 211.142 114.738 211.052 114.998 210.842C115.338 210.562 115.408 210.192 115.358 209.782C115.318 209.452 115.178 209.172 114.858 208.992C114.648 208.872 114.408 208.822 114.158 208.822C113.308 208.822 112.458 208.822 111.608 208.822C111.528 208.822 111.508 208.842 111.508 208.912C111.508 209.622 111.508 210.332 111.508 211.042C111.508 211.112 111.528 211.132 111.608 211.132C112.038 211.132 112.458 211.132 112.888 211.132V211.142Z" fill="white"/>
<path d="M118.248 214.742C118.158 214.622 118.098 214.482 117.998 214.362C117.878 214.212 117.717 214.092 117.557 213.972C117.857 213.822 118.148 213.672 118.418 213.492C119.248 212.952 119.908 212.262 120.278 211.372C120.598 210.612 120.688 209.812 120.598 209.002C120.478 207.932 120.038 207.012 119.238 206.262C118.598 205.662 117.838 205.242 117.018 204.922C115.778 204.452 114.488 204.222 113.168 204.112C112.238 204.032 111.318 204.022 110.388 204.072C109.268 204.132 108.168 204.302 107.088 204.602C106.168 204.852 105.288 205.202 104.458 205.672C103.618 206.152 102.878 206.742 102.328 207.512C101.938 208.062 101.698 208.662 101.638 209.322C101.618 209.582 101.637 209.842 101.687 210.102C101.827 210.822 102.148 211.452 102.648 212.012C102.898 212.292 103.178 212.552 103.478 212.792C104.058 213.252 104.698 213.612 105.378 213.912C105.948 214.162 106.538 214.372 107.138 214.532C107.138 215.322 107.138 216.112 107.138 216.902C106.088 216.782 105.067 216.582 104.057 216.292C102.597 215.872 101.228 215.272 99.9976 214.412C98.8276 213.612 97.8575 212.632 97.2275 211.392C96.7675 210.482 96.5676 209.532 96.6476 208.522C96.7376 207.362 97.1976 206.332 97.9276 205.402C98.7976 204.272 99.9275 203.432 101.208 202.752C102.488 202.072 103.848 201.612 105.278 201.302C105.678 201.212 106.068 201.142 106.478 201.092C106.708 201.062 106.938 201.042 107.158 201.012C108.068 200.882 108.978 200.862 109.898 200.882C110.388 200.882 110.868 200.922 111.358 200.972C111.728 201.012 112.098 201.052 112.468 201.112C113.138 201.222 113.798 201.362 114.458 201.542C114.988 201.682 115.508 201.842 116.018 202.052C116.398 202.212 116.778 202.382 117.158 202.552C117.808 202.852 118.408 203.212 118.978 203.622C119.388 203.912 119.768 204.232 120.128 204.582C120.838 205.292 121.418 206.072 121.778 207.002C122.378 208.572 122.258 210.092 121.458 211.582C120.948 212.532 120.218 213.312 119.368 213.992C119.018 214.262 118.658 214.522 118.278 214.752L118.248 214.742Z" fill="#B1B2B6"/>
<path d="M113.688 214.952C113.947 215.292 114.138 215.682 114.358 216.052C114.408 216.142 114.458 216.242 114.518 216.342C113.888 216.522 113.248 216.662 112.608 216.762C112.238 216.822 111.868 216.872 111.488 216.912C111.488 216.302 111.488 215.692 111.488 215.072C112.228 215.072 112.958 215.032 113.698 214.952H113.688Z" fill="#B1B2B6"/>
</svg>
