<svg width="254" height="281" viewBox="0 0 254 281" fill="none" xmlns="http://www.w3.org/2000/svg">
<path d="M108.1 213.31C125.68 204.24 148.8 218.52 148.8 240.08C148.8 271.61 133.9 276.26 107.03 276.26H81.1101C59.57 276.26 56.58 258.48 57.63 244.24C42.29 246.81 42.52 230.82 47.21 221.38C50.69 214.4 58.33 207.45 58.33 207.45C59.87 202.83 51.96 168.89 51.96 168.89C47.7 167.65 43.62 164.96 40.76 161.46C31.87 150.56 36.2 131.91 47.16 123.45C63.91 110.56 85.2601 115.73 94.7001 123.66C121.06 145.85 107.15 195.47 106.78 204.23C106.65 207.59 107.34 210.5 108.08 213.31H108.1Z" fill="#297CCC"/>
<path d="M85.69 224.24C78.82 232.24 78.7801 246.94 91.5601 246.95C100.79 246.95 102.16 239.24 105.44 234.37C106.99 232.08 108.03 230 108.69 228.07C110.68 222.31 109.32 217.93 108.08 213.31C107.34 210.5 106.65 207.59 106.78 204.23C107.15 195.47 121.06 145.84 94.7001 123.66C85.2601 115.73 63.92 110.56 47.16 123.45C36.21 131.89 31.88 150.55 40.77 161.45C43.63 164.95 47.71 167.64 51.97 168.88C51.97 168.88 59.88 202.82 58.34 207.44C58.34 207.44 50.69 214.39 47.22 221.37C42.53 230.81 42.3 246.8 57.64 244.23" stroke="#231815" stroke-width="8" stroke-linecap="round" stroke-linejoin="round"/>
<path d="M60.8701 226.77C60.8701 226.77 58.3501 234.71 57.6401 244.24C56.5801 258.48 59.5801 276.26 81.1201 276.26H107.04C133.91 276.26 148.81 271.61 148.81 240.08C148.81 218.52 125.69 204.24 108.11 213.31" stroke="#231815" stroke-width="8" stroke-linecap="round" stroke-linejoin="round"/>
<path d="M108.69 228.07C108.98 228.14 114.73 229.43 120.3 237.39" stroke="#231815" stroke-width="8" stroke-linecap="round" stroke-linejoin="round"/>
<path d="M54.5201 144.27C56.1935 144.27 57.5501 142.913 57.5501 141.24C57.5501 139.567 56.1935 138.21 54.5201 138.21C52.8466 138.21 51.4901 139.567 51.4901 141.24C51.4901 142.913 52.8466 144.27 54.5201 144.27Z" fill="#231815"/>
<path d="M74.2201 144.27C75.8935 144.27 77.25 142.913 77.25 141.24C77.25 139.567 75.8935 138.21 74.2201 138.21C72.5466 138.21 71.19 139.567 71.19 141.24C71.19 142.913 72.5466 144.27 74.2201 144.27Z" fill="#231815"/>
<path d="M53.29 150.66H75.45" stroke="#231815" stroke-width="4" stroke-linecap="round" stroke-linejoin="round"/>
<path d="M75.9401 126.53C88.64 128.78 102.23 128.86 102.23 128.86L114.5 100.97L97.1101 108.27L84.3501 79L62.3201 102.12L48.4901 89.29L50.4501 119.69C50.4501 119.69 63.2401 124.28 75.9501 126.53H75.9401Z" fill="#FFD047" stroke="#231815" stroke-width="8" stroke-linecap="round" stroke-linejoin="round"/>
<path d="M84.7301 103.43L82.1801 117.8" stroke="white" stroke-width="4" stroke-linecap="round" stroke-linejoin="round"/>
<path d="M182.27 222.16C197.38 214.37 217.24 226.64 217.24 245.16C217.24 272.25 204.44 276.25 181.35 276.25H159.08C140.57 276.25 138 260.98 138.91 248.74C125.73 250.95 125.93 237.21 129.96 229.1C132.95 223.1 139.52 217.13 139.52 217.13C140.84 213.16 134.04 183.99 134.04 183.99C130.38 182.92 126.87 180.61 124.42 177.6C116.78 168.23 120.5 152.21 129.92 144.94C144.32 133.86 162.66 138.3 170.77 145.12C193.42 164.18 181.47 206.83 181.15 214.36C181.03 217.25 181.63 219.75 182.27 222.16Z" fill="#FFD047"/>
<path d="M163.01 231.56C157.11 238.44 157.07 251.06 168.06 251.07C175.99 251.07 177.17 244.44 179.99 240.26C181.32 238.29 182.22 236.5 182.79 234.85C184.5 229.9 183.33 226.14 182.27 222.17C181.63 219.75 181.04 217.26 181.15 214.37C181.46 206.84 193.42 164.2 170.77 145.13C162.66 138.31 144.32 133.87 129.92 144.95C120.5 152.21 116.78 168.24 124.42 177.61C126.88 180.62 130.39 182.93 134.04 184C134.04 184 140.84 213.17 139.52 217.14C139.52 217.14 132.95 223.11 129.96 229.11C125.93 237.22 125.73 250.96 138.91 248.75" stroke="#231815" stroke-width="8" stroke-linecap="round" stroke-linejoin="round"/>
<path d="M141.68 233.73C141.68 233.73 139.51 240.56 138.91 248.74C138 260.98 140.57 276.25 159.08 276.25H181.35C204.44 276.25 217.24 272.25 217.24 245.16C217.24 226.63 197.37 214.36 182.27 222.16" stroke="#231815" stroke-width="8" stroke-linecap="round" stroke-linejoin="round"/>
<path d="M182.78 234.85C183.03 234.91 187.97 236.02 192.76 242.86" stroke="#231815" stroke-width="8" stroke-linecap="round" stroke-linejoin="round"/>
<path d="M136.22 162.84C137.656 162.84 138.82 161.676 138.82 160.24C138.82 158.804 137.656 157.64 136.22 157.64C134.784 157.64 133.62 158.804 133.62 160.24C133.62 161.676 134.784 162.84 136.22 162.84Z" fill="#231815"/>
<path d="M153.16 162.84C154.596 162.84 155.76 161.676 155.76 160.24C155.76 158.804 154.596 157.64 153.16 157.64C151.724 157.64 150.56 158.804 150.56 160.24C150.56 161.676 151.724 162.84 153.16 162.84Z" fill="#231815"/>
<path d="M135.17 168.34H154.22" stroke="#231815" stroke-width="4" stroke-linecap="round" stroke-linejoin="round"/>
</svg>
