<svg width="190" height="281" viewBox="0 0 190 281" fill="none" xmlns="http://www.w3.org/2000/svg">
<path d="M76.1 213.31C93.68 204.24 116.8 218.52 116.8 240.08C116.8 271.61 101.9 276.26 75.03 276.26H49.1101C27.57 276.26 24.58 258.48 25.63 244.24C10.29 246.81 10.52 230.82 15.21 221.38C18.69 214.4 26.33 207.45 26.33 207.45C27.87 202.83 19.96 168.89 19.96 168.89C15.7 167.65 11.62 164.96 8.76005 161.46C-0.129952 150.56 4.20005 131.91 15.16 123.45C31.91 110.56 53.2601 115.73 62.7001 123.66C89.0601 145.85 75.15 195.47 74.78 204.23C74.65 207.59 75.34 210.5 76.08 213.31H76.1Z" fill="#297CCC"/>
<path d="M53.69 224.24C46.82 232.24 46.7801 246.94 59.5601 246.95C68.7901 246.95 70.16 239.24 73.44 234.37C74.99 232.08 76.03 230 76.69 228.07C78.68 222.31 77.32 217.93 76.08 213.31C75.34 210.5 74.65 207.59 74.78 204.23C75.15 195.47 89.0601 145.84 62.7001 123.66C53.2601 115.73 31.92 110.56 15.16 123.45C4.21005 131.89 -0.119952 150.55 8.77005 161.45C11.63 164.95 15.71 167.64 19.97 168.88C19.97 168.88 27.88 202.82 26.34 207.44C26.34 207.44 18.69 214.39 15.22 221.37C10.53 230.81 10.3 246.8 25.64 244.23" stroke="#231815" stroke-width="8" stroke-linecap="round" stroke-linejoin="round"/>
<path d="M28.87 226.77C28.87 226.77 26.35 234.71 25.64 244.24C24.58 258.48 27.58 276.26 49.12 276.26H75.04C101.91 276.26 116.81 271.61 116.81 240.08C116.81 218.52 93.69 204.24 76.11 213.31" stroke="#231815" stroke-width="8" stroke-linecap="round" stroke-linejoin="round"/>
<path d="M76.69 228.07C76.98 228.14 82.73 229.43 88.3 237.39" stroke="#231815" stroke-width="8" stroke-linecap="round" stroke-linejoin="round"/>
<path d="M22.5201 144.27C24.1935 144.27 25.5501 142.913 25.5501 141.24C25.5501 139.567 24.1935 138.21 22.5201 138.21C20.8466 138.21 19.4901 139.567 19.4901 141.24C19.4901 142.913 20.8466 144.27 22.5201 144.27Z" fill="#231815"/>
<path d="M42.2201 144.27C43.8935 144.27 45.2501 142.913 45.2501 141.24C45.2501 139.567 43.8935 138.21 42.2201 138.21C40.5466 138.21 39.1901 139.567 39.1901 141.24C39.1901 142.913 40.5466 144.27 42.2201 144.27Z" fill="#231815"/>
<path d="M21.29 150.66H43.45" stroke="#231815" stroke-width="4" stroke-linecap="round" stroke-linejoin="round"/>
<path d="M43.9401 126.53C56.64 128.78 70.2301 128.86 70.2301 128.86L82.5001 100.97L65.1101 108.27L52.3501 79L30.3201 102.12L16.4901 89.29L18.4501 119.69C18.4501 119.69 31.2401 124.28 43.9501 126.53H43.9401Z" fill="#FFD047" stroke="#231815" stroke-width="8" stroke-linecap="round" stroke-linejoin="round"/>
<path d="M52.7301 103.43L50.1801 117.8" stroke="white" stroke-width="4" stroke-linecap="round" stroke-linejoin="round"/>
<path d="M150.27 222.16C165.38 214.37 185.24 226.64 185.24 245.16C185.24 272.25 172.44 276.25 149.35 276.25H127.08C108.57 276.25 106 260.98 106.91 248.74C93.7299 250.95 93.9299 237.21 97.9599 229.1C100.95 223.1 107.52 217.13 107.52 217.13C108.84 213.16 102.04 183.99 102.04 183.99C98.3799 182.92 94.8699 180.61 92.4199 177.6C84.7799 168.23 88.4999 152.21 97.9199 144.94C112.32 133.86 130.66 138.3 138.77 145.12C161.42 164.18 149.47 206.83 149.15 214.36C149.03 217.25 149.63 219.75 150.27 222.16Z" fill="#FFD047"/>
<path d="M131.01 231.56C125.11 238.44 125.07 251.06 136.06 251.07C143.99 251.07 145.17 244.44 147.99 240.26C149.32 238.29 150.22 236.5 150.79 234.85C152.5 229.9 151.33 226.14 150.27 222.17C149.63 219.75 149.04 217.26 149.15 214.37C149.46 206.84 161.42 164.2 138.77 145.13C130.66 138.31 112.32 133.87 97.9199 144.95C88.4999 152.21 84.7799 168.24 92.4199 177.61C94.8799 180.62 98.3899 182.93 102.04 184C102.04 184 108.84 213.17 107.52 217.14C107.52 217.14 100.95 223.11 97.9599 229.11C93.9299 237.22 93.7299 250.96 106.91 248.75" stroke="#231815" stroke-width="8" stroke-linecap="round" stroke-linejoin="round"/>
<path d="M109.68 233.73C109.68 233.73 107.51 240.56 106.91 248.74C106 260.98 108.57 276.25 127.08 276.25H149.35C172.44 276.25 185.24 272.25 185.24 245.16C185.24 226.63 165.37 214.36 150.27 222.16" stroke="#231815" stroke-width="8" stroke-linecap="round" stroke-linejoin="round"/>
<path d="M150.78 234.85C151.03 234.91 155.97 236.02 160.76 242.86" stroke="#231815" stroke-width="8" stroke-linecap="round" stroke-linejoin="round"/>
<path d="M104.22 162.84C105.656 162.84 106.82 161.676 106.82 160.24C106.82 158.804 105.656 157.64 104.22 157.64C102.784 157.64 101.62 158.804 101.62 160.24C101.62 161.676 102.784 162.84 104.22 162.84Z" fill="#231815"/>
<path d="M121.16 162.84C122.596 162.84 123.76 161.676 123.76 160.24C123.76 158.804 122.596 157.64 121.16 157.64C119.724 157.64 118.56 158.804 118.56 160.24C118.56 161.676 119.724 162.84 121.16 162.84Z" fill="#231815"/>
<path d="M103.17 168.34H122.22" stroke="#231815" stroke-width="4" stroke-linecap="round" stroke-linejoin="round"/>
</svg>
