<svg
  xmlns="http://www.w3.org/2000/svg"
  width="40"
  height="40"
  viewBox="0 0 40 40"
  fill="#2e6ff2"
>
  <path
    fill-rule="evenodd"
    clip-rule="evenodd"
    d="M6.83333 4C5.07853 4 4 5.56178 4 7.03333V24.9667C4 26.4382 5.07853 28 6.83333 28H11.5V25H7.00193C7.00073 24.9901 7 24.979 7 24.9667V7.03333C7 7.02104 7.00073 7.00994 7.00193 7H23.9981C23.9993 7.00994 24 7.02104 24 7.03333V10.5H27V7.03333C27 5.56178 25.9215 4 24.1667 4H6.83333ZM16.8333 13C15.2004 13 14 14.3682 14 15.9V34.1C14 35.6318 15.2004 37 16.8333 37H34.1667C35.7996 37 37 35.6318 37 34.1V15.9C37 14.3682 35.7996 13 34.1667 13H16.8333ZM34 34H17V16H34V34ZM31 21.5C31 22.3284 30.3284 23 29.5 23H21.5C20.6716 23 20 22.3284 20 21.5C20 20.6716 20.6716 20 21.5 20H29.5C30.3284 20 31 20.6716 31 21.5ZM29.5 30C30.3284 30 31 29.3284 31 28.5C31 27.6716 30.3284 27 29.5 27H21.5C20.6716 27 20 27.6716 20 28.5C20 29.3284 20.6716 30 21.5 30H29.5Z"
  />
</svg>
