<svg width="20" height="20" viewBox="0 0 20 20" fill="none" xmlns="http://www.w3.org/2000/svg">
<path fill-rule="evenodd" clip-rule="evenodd" d="M6 1.25C3.37665 1.25 1.25 3.37665 1.25 6V14C1.25 16.6234 3.37665 18.75 6 18.75H14C16.6234 18.75 18.75 16.6234 18.75 14V6C18.75 3.37665 16.6234 1.25 14 1.25H6ZM2.75 6C2.75 4.20507 4.20507 2.75 6 2.75H14C15.7949 2.75 17.25 4.20507 17.25 6V14C17.25 15.7949 15.7949 17.25 14 17.25H6C4.20507 17.25 2.75 15.7949 2.75 14V6ZM7.53033 6.46968C7.31583 6.25518 6.99324 6.19101 6.71299 6.3071C6.43273 6.42318 6.25 6.69666 6.25 7.00001V13C6.25 13.4142 6.58579 13.75 7 13.75C7.41421 13.75 7.75 13.4142 7.75 13V8.81067L12.4697 13.5303C12.6842 13.7448 13.0068 13.809 13.287 13.6929C13.5673 13.5768 13.75 13.3034 13.75 13V7.00001C13.75 6.58579 13.4142 6.25001 13 6.25001C12.5858 6.25001 12.25 6.58579 12.25 7.00001V11.1893L7.53033 6.46968Z" fill="#2E6FF2"/>
</svg>
