<svg width="20" height="20" viewBox="0 0 20 20" fill="none" xmlns="http://www.w3.org/2000/svg">
<path fill-rule="evenodd" clip-rule="evenodd" d="M10 1.25C5.16751 1.25 1.25 5.16751 1.25 10C1.25 14.8325 5.16751 18.75 10 18.75H16C17.5188 18.75 18.75 17.5188 18.75 16V10C18.75 5.16751 14.8325 1.25 10 1.25ZM2.75 10C2.75 5.99594 5.99594 2.75 10 2.75C14.0041 2.75 17.25 5.99594 17.25 10V16C17.25 16.0601 17.2458 16.1191 17.2376 16.1769L12.25 11.1893V7.5C12.25 7.08579 11.9142 6.75 11.5 6.75C11.0858 6.75 10.75 7.08579 10.75 7.5V9.68934L8.78033 7.71967C8.48744 7.42678 8.01256 7.42678 7.71967 7.71967C7.42678 8.01256 7.42678 8.48744 7.71967 8.78033L12.1893 13.25H10C9.58579 13.25 9.25 13.5858 9.25 14C9.25 14.4142 9.58579 14.75 10 14.75H13.6893L16.1769 17.2376C16.1191 17.2458 16.0601 17.25 16 17.25H10C5.99594 17.25 2.75 14.0041 2.75 10Z" fill="#2E6FF2"/>
</svg>
