<svg width="17" height="17" viewBox="0 0 17 17" fill="none" xmlns="http://www.w3.org/2000/svg">
<path fill-rule="evenodd" clip-rule="evenodd" d="M16.3787 5.20365C15.9361 4.18936 15.3385 3.28532 14.586 2.51359C13.8113 1.74187 12.926 1.12453 11.9078 0.683549C10.8896 0.242563 9.78297 0 8.58778 0C7.43686 0 6.33019 0.198422 5.28993 0.639407C4.24961 1.08039 3.34217 1.67577 2.54535 2.42542C1.74858 3.19714 1.12883 4.07911 0.686164 5.0934C0.232256 6.12954 -0.00139865 7.24816 6.29846e-06 8.37872C6.29846e-06 9.52532 0.199239 10.6278 0.641908 11.664C1.08458 12.7004 1.68217 13.6044 2.45684 14.3981C3.23151 15.1919 4.13894 15.8094 5.1571 16.2503C6.19736 16.6913 7.28193 16.9338 8.45496 16.9338L16.9321 17L16.9985 8.51103C17.0206 7.34236 16.7992 6.2399 16.3787 5.20365ZM9.18008 8.05153L15.2571 14.209L15.2942 8.51103C15.2942 7.56285 15.1393 6.68088 14.7851 5.86512C14.431 5.04926 13.9662 4.32168 13.3465 3.70423C12.7267 3.06483 12.0185 2.57981 11.1995 2.227C10.3806 1.87419 9.49528 1.67577 8.54353 1.67577C7.61393 1.67577 6.7507 1.83005 5.90962 2.18286C5.09069 2.53566 4.36028 2.99872 3.71843 3.61606C3.09868 4.2335 2.58961 4.93901 2.2355 5.75488C1.88135 6.57064 1.68217 7.45261 1.68217 8.40079C1.68217 9.32679 1.83709 10.1868 2.19125 11.0246C2.54135 11.8345 3.03633 12.5741 3.65202 13.2075C4.27177 13.8249 5.00218 14.332 5.82111 14.6848C6.64003 15.0376 7.52537 15.2361 8.45496 15.2361L14.1749 15.2917L11.159 12.236C11.1432 12.2369 11.1272 12.2373 11.111 12.2373H6.28593C5.86542 12.2373 5.51126 11.9066 5.51126 11.4656C5.51126 11.0467 5.86542 10.6939 6.28593 10.6939H9.63701L4.98008 5.97537C4.67018 5.66659 4.69233 5.18158 4.98008 4.89487C5.28993 4.5862 5.77685 4.60827 6.0646 4.89487L7.97301 6.82849L9.07476 3.81448C9.22968 3.41764 9.67235 3.19714 10.0708 3.35153C10.4691 3.50581 10.6905 3.9468 10.5355 4.34375L9.18008 8.05153Z" fill="#D9DBE0"/>
</svg>
