<svg width="20" height="20" viewBox="0 0 20 20" fill="none" xmlns="http://www.w3.org/2000/svg">
<path fill-rule="evenodd" clip-rule="evenodd" d="M1.25 6C1.25 3.37665 3.37665 1.25 6 1.25H14C16.6234 1.25 18.75 3.37665 18.75 6V14C18.75 16.6234 16.6234 18.75 14 18.75H6C3.37665 18.75 1.25 16.6234 1.25 14V6ZM6 2.75C4.20507 2.75 2.75 4.20507 2.75 6V14C2.75 15.7949 4.20507 17.25 6 17.25H14C15.7949 17.25 17.25 15.7949 17.25 14V6C17.25 4.20507 15.7949 2.75 14 2.75H6ZM10 7.75C8.75736 7.75 7.75 8.75736 7.75 10C7.75 11.2426 8.75736 12.25 10 12.25C11.2426 12.25 12.25 11.2426 12.25 10C12.25 8.75736 11.2426 7.75 10 7.75ZM6.25 10C6.25 7.92893 7.92893 6.25 10 6.25C12.0711 6.25 13.75 7.92893 13.75 10C13.75 12.0711 12.0711 13.75 10 13.75C7.92893 13.75 6.25 12.0711 6.25 10ZM14.25 7C14.9404 7 15.5 6.44036 15.5 5.75C15.5 5.05964 14.9404 4.5 14.25 4.5C13.5596 4.5 13 5.05964 13 5.75C13 6.44036 13.5596 7 14.25 7Z" fill="#2E6FF2"/>
</svg>
