<svg width="16" height="15" viewBox="0 0 16 15" fill="none" xmlns="http://www.w3.org/2000/svg">
<path fill-rule="evenodd" clip-rule="evenodd"  d="M5.05004 3.07283C5.05004 3.17308 5.05004 3.27332 5.05037 3.37356C5.05071 3.62587 5.04649 3.87818 5.05561 4.13049C5.05983 4.18606 5.06271 4.24232 5.07656 4.29653C5.09193 4.35893 5.12199 4.4186 5.1671 4.46463C5.20953 4.50957 5.26523 4.53947 5.32588 4.54987C5.37216 4.5797 5.41186 4.61857 5.45054 4.65778L5.49699 4.70551V7.71447H7.0235L6.9936 4.28852C6.96285 4.228 6.93279 4.16714 6.90373 4.10577C6.84833 3.98984 6.79309 3.87358 6.72586 3.76413C6.57385 3.52051 6.35413 3.32746 6.09411 3.20905C6.05273 3.1903 6.01134 3.17239 5.96878 3.15671C5.81067 3.09807 5.64513 3.06363 5.47925 3.03652C5.42351 3.02732 5.36777 3.01913 5.31203 3.00976L5.05004 2.9668V3.07283ZM1.65244 3.24928L1.65919 4.75598C1.6619 5.28906 1.66477 5.82198 1.66832 6.35507C1.67051 6.68409 1.67305 7.01312 1.67507 7.34231L1.67761 7.68498L1.91713 7.69094L1.93267 7.69129L1.99348 7.69299L2.00125 7.69316L2.06966 7.69521C2.28621 7.70168 2.50277 7.70919 2.71949 7.71055H2.72726C2.75226 7.71055 2.77743 7.70936 2.80259 7.70833C2.86053 7.70544 2.91898 7.69657 2.97269 7.67373C2.99499 7.66435 3.01627 7.65276 3.03604 7.63895C3.10614 7.67986 3.17962 7.71549 3.25698 7.74004C3.31019 7.7576 3.36441 7.77209 3.41914 7.78283C3.58637 7.81574 3.75867 7.81659 3.92674 7.79119C4.0835 7.76703 4.23641 7.72203 4.38146 7.65736C4.45511 7.62548 4.52639 7.58746 4.59396 7.54382C4.78512 7.41901 4.94895 7.25604 5.07537 7.06494C5.09987 7.02846 5.12335 6.99147 5.14379 6.95243C5.19818 6.84963 5.23534 6.73763 5.25527 6.62289C5.30189 6.37109 5.30865 6.11316 5.28737 5.85829C5.28092 5.77381 5.27021 5.68971 5.25527 5.60633C5.22841 5.46108 5.18433 5.31787 5.11507 5.18695C5.09219 5.14477 5.06773 5.10349 5.04176 5.06318C4.9323 4.89202 4.79869 4.73535 4.63974 4.60919C4.61327 4.58771 4.58564 4.56773 4.55697 4.54935C4.43163 4.46906 4.29177 4.41382 4.14853 4.37598C3.9203 4.31421 3.68146 4.30351 3.4487 4.34461C3.35445 4.36183 3.26171 4.38842 3.17286 4.42473V3.15859H1.6521L1.65244 3.24928ZM12.3491 4.31597C12.2462 4.31767 12.1437 4.32893 12.0427 4.34836C11.848 4.38571 11.6608 4.4553 11.4887 4.5543C11.2733 4.68109 11.0941 4.86191 10.9684 5.0792C10.9295 5.14603 10.8963 5.21593 10.868 5.28804C10.8101 5.43431 10.7721 5.58808 10.7503 5.7439C10.7047 5.54115 10.6216 5.3489 10.5054 5.17723C10.3982 5.01814 10.2664 4.87736 10.1152 4.76024C9.78911 4.51007 9.39503 4.36653 8.98581 4.34887C8.9137 4.34646 8.84151 4.34817 8.76959 4.35399C8.42319 4.38334 8.09103 4.50643 7.80812 4.71029C7.65237 4.82244 7.51568 4.95935 7.40339 5.11569C7.2959 5.26426 7.21579 5.43115 7.16691 5.60837C7.14731 5.68151 7.13397 5.75652 7.12721 5.83204C7.11539 5.97132 7.10441 6.11111 7.11032 6.25091C7.11167 6.28892 7.11471 6.32694 7.12062 6.36462C7.13616 6.46571 7.16843 6.5634 7.20812 6.65733C7.23143 6.71308 7.25728 6.76763 7.28397 6.82184C7.42798 7.08725 7.62726 7.31803 7.86808 7.4983C8.01024 7.60223 8.16885 7.68104 8.33716 7.73135C8.50726 7.78351 8.68463 7.80977 8.86216 7.81556C8.93108 7.81744 9.00016 7.81556 9.06891 7.81096C9.28004 7.79777 9.48775 7.75082 9.68428 7.67185C9.71347 7.66026 9.7421 7.64729 9.77009 7.63298C9.8934 7.56922 10.0091 7.49114 10.1165 7.40283C10.2143 7.32271 10.3052 7.23406 10.3898 7.13978C10.4441 7.07892 10.4934 7.01346 10.5373 6.94442C10.6325 6.79481 10.7023 6.63026 10.7439 6.45753C10.763 6.63193 10.803 6.80513 10.8745 6.96556C10.9192 7.06614 10.9767 7.16144 11.0468 7.24616C11.1413 7.35958 11.253 7.45727 11.3777 7.53564C11.5064 7.61866 11.6454 7.6843 11.7873 7.74124C11.8488 7.76544 11.9126 7.78317 11.9773 7.79545V9.22321L12.216 9.21298L12.24 9.21196L12.264 9.21094L12.2718 9.2106L12.3233 9.20872C12.5456 9.2002 12.7679 9.19389 12.9898 9.17957C13.1417 9.16832 13.2929 9.13337 13.4304 9.06637C13.4682 9.04762 13.506 9.02835 13.5427 9.00721C13.6853 8.92399 13.8157 8.82111 13.9302 8.70154C13.9452 8.68654 13.9591 8.67069 13.9724 8.65415C14.0653 8.543 14.1471 8.42094 14.2038 8.28677C14.2292 8.2271 14.2489 8.16488 14.2635 8.10163C14.3023 7.93712 14.3182 7.76834 14.3266 7.59991C14.331 7.51416 14.3339 7.42841 14.3369 7.34266C14.3491 6.79712 14.3457 6.25142 14.3459 5.70571C14.3459 5.57206 14.3462 5.4384 14.3461 5.30475V4.37649H12.8714V4.4157C12.7057 4.34731 12.5281 4.31339 12.3491 4.31597ZM9.00996 5.77476C9.02736 5.77544 9.04543 5.77629 9.06165 5.78328C9.06739 5.78703 9.07195 5.79232 9.07736 5.79658C9.13648 5.84909 9.19256 5.90569 9.24155 5.96791C9.24813 5.97985 9.24932 5.99382 9.2505 6.00712C9.25286 6.04173 9.24965 6.07617 9.24695 6.11043C9.23465 6.199 9.18949 6.27955 9.1206 6.33581C9.08665 6.36342 9.04695 6.38388 9.00456 6.39394C8.95016 6.40928 8.89138 6.40417 8.83851 6.38473C8.77099 6.36033 8.71337 6.31405 8.67466 6.25312C8.66033 6.22941 8.64915 6.20391 8.64138 6.17726C8.62155 6.10454 8.62845 6.02703 8.66081 5.95905C8.67263 5.93416 8.68767 5.91097 8.70507 5.88983C8.73513 5.84619 8.77736 5.81005 8.82736 5.79232C8.84358 5.78652 8.86064 5.78379 8.87753 5.78158C8.91531 5.7764 8.95343 5.77412 8.99155 5.77476C8.99763 5.77442 9.00371 5.77459 9.00996 5.77476ZM12.5949 5.77817C12.6229 5.77817 12.6508 5.78209 12.6773 5.79095C12.7543 5.81618 12.8202 5.87517 12.8533 5.94984C12.864 5.972 12.8728 5.99468 12.8785 6.01854C12.8925 6.07531 12.8922 6.13652 12.8728 6.19192C12.865 6.21374 12.854 6.23454 12.8402 6.25329L12.8358 6.25909C12.7997 6.30481 12.7529 6.34077 12.6996 6.36376C12.6624 6.38052 12.6233 6.39254 12.5832 6.39956C12.5567 6.39883 12.5306 6.39305 12.5062 6.38252C12.4784 6.37139 12.4511 6.35888 12.4245 6.34501C12.3786 6.31425 12.3433 6.26995 12.3234 6.21817C12.2964 6.1517 12.2909 6.07833 12.3076 6.00849C12.3157 5.97558 12.3295 5.94422 12.3488 5.91643C12.3934 5.84483 12.4692 5.79368 12.5522 5.78107C12.5663 5.77885 12.5807 5.77783 12.5949 5.77817ZM3.50664 5.82761C3.53738 5.82778 3.56813 5.83357 3.59634 5.84568C3.66103 5.87295 3.71458 5.92717 3.73992 5.99331C3.75326 6.02894 3.75765 6.06747 3.75529 6.10515C3.75186 6.16078 3.73307 6.21434 3.70106 6.25977C3.66562 6.29689 3.62164 6.32459 3.57303 6.34041C3.51779 6.35933 3.4585 6.36615 3.40039 6.36052C3.35508 6.35374 3.31415 6.32948 3.2862 6.29284C3.2503 6.24938 3.22853 6.19581 3.22387 6.13941C3.21705 6.07557 3.22991 6.01115 3.2607 5.95496C3.28012 5.92086 3.30783 5.89103 3.34195 5.87142C3.39144 5.84193 3.44921 5.82693 3.50664 5.82761Z" fill="#8D9299"/>
<path fill-rule="evenodd" clip-rule="evenodd"  d="M7.84789 14.9222C7.77188 14.8499 7.50837 14.2727 7.01209 13.0954L6.28811 11.3677H4.13391C2.88696 11.3677 1.87701 11.3498 1.7385 11.3227C1.3809 11.255 0.898132 10.9979 0.638845 10.7363C0.375334 10.4703 0.120607 10.0056 0.048986 9.66276C0.0133444 9.50046 0 8.24642 0 5.67099C0 2.44126 0.00878367 1.87749 0.0668912 1.64751C0.281416 0.817448 0.965192 0.18139 1.78765 0.0506323C2.18967 -0.0168774 13.8144 -0.0168774 14.2122 0.0506323C15.0122 0.176957 15.6737 0.75437 15.9105 1.52119C15.9954 1.80537 16 1.93613 16 5.65735C16 8.07952 15.9819 9.56814 15.9507 9.6943C15.8301 10.2311 15.3742 10.8264 14.8916 11.0881C14.3955 11.3543 14.2747 11.3677 11.906 11.3677H9.75632L9.03234 13.0954C8.62998 14.0425 8.27255 14.8499 8.23218 14.8905C8.09823 15.0259 7.97306 15.0349 7.84789 14.9222ZM13.4076 8.77422C13.5417 8.6975 13.7161 8.55311 13.7965 8.44485C14.0602 8.09316 14.0781 7.9624 14.0781 6.21669V4.64692H13.1396V4.93111L13.0412 4.84093C12.7953 4.61538 12.4647 4.53867 12.0848 4.61538C11.3696 4.76421 10.9943 5.27854 10.9943 6.10844C10.9943 6.80314 11.182 7.15041 11.6914 7.40306C11.9195 7.51574 12.0357 7.54728 12.2367 7.54728C12.5585 7.54285 12.8267 7.47057 12.9831 7.34441L13.1081 7.24502L13.0769 7.44363C13.0144 7.83607 12.8088 8.03008 12.4512 8.03008H12.2456V8.94112L12.7059 8.92305C13.1083 8.90941 13.1887 8.89151 13.4076 8.77422ZM4.31718 7.38942C4.57191 7.27213 4.81769 7.01948 4.9339 6.77143C5.05907 6.48724 5.06363 5.81521 4.94285 5.46335C4.8535 5.1974 4.58086 4.86343 4.36178 4.74631C3.90604 4.50713 3.32496 4.5477 3.00774 4.84093L2.90487 4.93128V3.42919H1.92177L1.93055 5.4272L1.94407 7.42096L2.42666 7.4346C2.88257 7.44823 2.90487 7.44363 2.90487 7.35328C2.90487 7.24059 2.91838 7.24059 3.12395 7.37595C3.43679 7.58786 3.89253 7.59246 4.31718 7.38959V7.38942ZM9.55074 7.4346C9.82338 7.33538 10.1943 7.01522 10.3418 6.74893C10.8289 5.89193 10.2747 4.85456 9.22 4.64692C8.55852 4.51616 7.84333 4.84093 7.53066 5.41834C7.43219 5.60774 7.39654 5.73407 7.38303 6.00479C7.36529 6.30688 7.37864 6.37899 7.4859 6.6226C7.61546 6.91583 7.91039 7.23616 8.17863 7.37595C8.56748 7.57882 9.10379 7.60149 9.55074 7.4346ZM6.73946 5.89636L6.72611 4.35387L6.57865 4.05161C6.37307 3.63223 6.04673 3.40651 5.51042 3.31633L5.31836 3.28479V3.78549C5.31836 4.2139 5.32731 4.28619 5.38981 4.28619C5.43001 4.28619 5.52832 4.35387 5.61329 4.43962L5.76531 4.59288V7.44363H6.7528L6.73946 5.89636Z" fill="#D9DBE0"/>
<path fill-rule="evenodd" clip-rule="evenodd"  d="M12.3483 6.6092C12.0534 6.48287 11.9372 6.07696 12.1115 5.78817C12.3531 5.38686 12.9161 5.42283 13.1037 5.85125C13.2422 6.17175 13.1037 6.50077 12.7686 6.62727C12.6031 6.69034 12.5225 6.68591 12.3483 6.6092ZM3.18204 6.55959C2.8513 6.32944 2.88695 5.78817 3.24454 5.61684C3.73609 5.38226 4.20551 5.87392 3.95518 6.36115C3.83001 6.6092 3.40535 6.71745 3.18204 6.55959ZM8.63891 6.58669C8.57236 6.54647 8.51464 6.49296 8.46929 6.42944C8.42395 6.36591 8.39193 6.29371 8.37519 6.21726C8.35846 6.14081 8.35737 6.06172 8.37199 5.98483C8.38661 5.90794 8.41662 5.83487 8.4602 5.7701C8.58976 5.57626 8.72827 5.50415 8.9786 5.50415C9.14397 5.50415 9.19752 5.52665 9.34515 5.67991C9.49262 5.82891 9.51931 5.88296 9.51931 6.04985C9.51931 6.53248 9.03232 6.83014 8.63891 6.58669Z" fill="#D9DBE0"/>
</svg>
