<svg xmlns="http://www.w3.org/2000/svg" width="35" height="35" viewBox="0 0 35 35" fill="#ddd">
  <path fill-rule="evenodd" clip-rule="evenodd" d="M23.4229 3.94129C25.4261 4.05314 27.3191 4.97986 28.7157 6.47805C30.0113 7.86783 31.0667 9.58706 31.1285 11.866C31.1609 13.0619 31.0015 14.074 30.6028 15.0153C30.2115 15.9393 29.6299 16.6968 28.9781 17.4249C28.9631 17.4417 28.9477 17.4581 28.9319 17.4742L25.3577 21.1217C25.3493 21.1303 25.3408 21.1388 25.3321 21.1472C24.4355 22.0192 23.6157 22.5098 22.6311 22.8509C21.6001 23.208 20.5 23.3207 19.4083 23.188C18.3173 23.0554 17.2623 22.6811 16.3123 22.0995C15.3626 21.518 14.5368 20.7411 13.8863 19.8242C13.4069 19.1486 13.566 18.2122 14.2417 17.7329C14.9173 17.2535 15.8537 17.4126 16.333 18.0883C16.7539 18.6815 17.2827 19.176 17.8788 19.541C18.4747 19.9058 19.1207 20.1309 19.7704 20.2099C20.4195 20.2888 21.0592 20.2205 21.6491 20.0161C22.1959 19.8267 22.6387 19.5793 23.2282 19.0086L26.7649 15.3993C27.3152 14.7819 27.64 14.3185 27.8404 13.8453C28.0361 13.3832 28.1532 12.8154 28.1296 11.9473C28.0945 10.6527 27.5236 9.59881 26.5213 8.52367C25.6201 7.55694 24.4397 7.00273 23.2557 6.93662C22.0817 6.87107 20.9759 7.28688 20.1579 8.08717L18.1172 10.1568C17.5356 10.7467 16.5858 10.7534 15.9959 10.1717C15.406 9.59007 15.3994 8.64034 15.981 8.05045L18.0304 5.97195L18.0468 5.95559C19.4765 4.5497 21.4134 3.82908 23.4229 3.94129Z"/>
  <path fill-rule="evenodd" clip-rule="evenodd" d="M11.8179 31.2996C9.81475 31.1878 7.92174 30.2611 6.52513 28.7629C5.22957 27.3731 4.17413 25.6538 4.11233 23.3749C4.0799 22.1791 4.23935 21.1669 4.63804 20.2256C5.02939 19.3016 5.61093 18.5441 6.26271 17.8161C6.27775 17.7992 6.29317 17.7828 6.30895 17.7667L9.88311 14.1192C9.89154 14.1106 9.90008 14.1021 9.90871 14.0937C10.8054 13.2217 11.6252 12.7311 12.6098 12.39C13.6408 12.0329 14.7408 11.9202 15.8325 12.0529C16.9236 12.1856 17.9785 12.5598 18.9285 13.1414C19.8782 13.7229 20.7041 14.4998 21.3546 15.4167C21.8339 16.0924 21.6748 17.0287 20.9991 17.508C20.3235 17.9874 19.3872 17.8283 18.9078 17.1526C18.4869 16.5594 17.9582 16.0649 17.362 15.6999C16.7662 15.3351 16.1201 15.11 15.4704 15.031C14.8214 14.9521 14.1816 15.0204 13.5918 15.2248C13.045 15.4142 12.6022 15.6616 12.0127 16.2323L8.47591 19.8416C7.92561 20.459 7.60088 20.9224 7.40049 21.3956C7.20477 21.8577 7.08768 22.4255 7.11122 23.2936C7.14633 24.5882 7.71729 25.6421 8.71953 26.7172C9.62072 27.684 10.8012 28.2382 11.9852 28.3043C13.1591 28.3698 14.2649 27.954 15.083 27.1537L17.1236 25.0841C17.7053 24.4942 18.655 24.4875 19.2449 25.0692C19.8348 25.6508 19.8415 26.6006 19.2598 27.1905L17.2104 29.269L17.194 29.2853C15.7643 30.6912 13.8275 31.4118 11.8179 31.2996Z"/>
</svg>