<svg width="20" height="20" viewBox="0 0 20 20" fill="none" xmlns="http://www.w3.org/2000/svg">
<path d="M17.4857 10.6755C17.4857 10.2746 17.8244 9.95 18.2428 9.95C18.6613 9.95 19 10.2746 19 10.6755C19 13.2529 16.8114 15.35 14.1214 15.35C12.3895 15.35 10.8656 14.4794 10 13.172C9.13443 14.4794 7.61132 15.35 5.87859 15.35C3.18863 15.35 1 13.2529 1 10.6755C1 10.2746 1.33874 9.95 1.75717 9.95C2.17561 9.95 2.51435 10.2746 2.51435 10.6755C2.51435 12.4526 4.02391 13.899 5.87859 13.899C7.73326 13.899 9.24283 12.4526 9.24283 10.6755C9.24283 10.2746 9.58156 9.95 10 9.95C10.4184 9.95 10.7572 10.2746 10.7572 10.6755C10.7572 12.4526 12.2667 13.899 14.1214 13.899C15.9761 13.899 17.4857 12.4526 17.4857 10.6755Z" fill="white"/>
<path d="M5.95 7.7C6.69558 7.7 7.3 7.09558 7.3 6.35C7.3 5.60441 6.69558 5 5.95 5C5.20442 5 4.6 5.60441 4.6 6.35C4.6 7.09558 5.20442 7.7 5.95 7.7Z" fill="white"/>
<path d="M15.4 6.35C15.4 7.09558 14.7956 7.7 14.05 7.7C13.3044 7.7 12.7 7.09558 12.7 6.35C12.7 5.60441 13.3044 5 14.05 5C14.7956 5 15.4 5.60441 15.4 6.35Z" fill="white"/>
</svg>
