<svg width="650" height="116" viewBox="0 0 650 116" fill="none" xmlns="http://www.w3.org/2000/svg">
<path d="M312.766 91.876C309.397 91.876 306.669 89.1698 306.669 85.8273C306.669 71.0118 294.512 58.9529 279.577 58.9529C264.641 58.9529 252.485 71.0118 252.485 85.8273C252.485 89.1698 249.757 91.876 246.388 91.876C243.018 91.876 240.29 89.1698 240.29 85.8273C240.29 64.3393 257.915 46.8558 279.577 46.8558C301.239 46.8558 318.864 64.3393 318.864 85.8273C318.864 89.1698 316.135 91.876 312.766 91.876Z" fill="#2E6FF2"/>
<path d="M406.539 91.876C404.961 91.876 403.382 91.2843 402.174 90.1064L368.581 57.1841C366.171 54.8221 366.171 50.9893 368.581 48.6273C370.991 46.2653 374.896 46.2653 377.313 48.6273L406.539 77.2709L435.766 48.6273C438.176 46.2653 442.081 46.2653 444.498 48.6273C446.908 50.9893 446.908 54.8221 444.498 57.1841L410.905 90.1064C409.697 91.2843 408.119 91.876 406.539 91.876Z" fill="#2E6FF2"/>
<path d="M343.298 91.876C339.856 91.876 337.07 89.1706 337.07 85.8288V51.9451C337.07 48.6033 339.856 45.8979 343.298 45.8979C346.74 45.8979 349.526 48.6033 349.526 51.9451V85.8288C349.526 89.1706 346.74 91.876 343.298 91.876Z" fill="#2E6FF2"/>
<path d="M343.782 36.9287C348.316 36.9287 351.991 33.2444 351.991 28.6996C351.991 24.1549 348.316 20.4706 343.782 20.4706C339.249 20.4706 335.574 24.1549 335.574 28.6996C335.574 33.2444 339.249 36.9287 343.782 36.9287Z" fill="#2E6FF2"/>
<path d="M454.789 91.789C459.322 91.789 462.997 88.1048 462.997 83.56C462.997 79.0152 459.322 75.3309 454.789 75.3309C450.256 75.3309 446.581 79.0152 446.581 83.56C446.581 88.1048 450.256 91.789 454.789 91.789Z" fill="#2E6FF2"/>
<path d="M201.8 93.7953C198.531 93.7953 195.262 93.1582 192.141 91.8846C185.784 89.2921 180.81 84.3594 178.135 77.997C175.461 71.6347 175.409 64.6161 177.994 58.215C180.565 51.8202 185.468 46.8162 191.787 44.1257C198.105 41.4353 205.089 41.3833 211.452 43.9828C217.809 46.5758 222.783 51.5083 225.458 57.8705C226.712 60.8469 225.322 64.2782 222.37 65.5325L192.258 78.3414C193.485 79.4784 194.92 80.3953 196.509 81.045C199.991 82.4683 203.816 82.4353 207.272 80.9666C210.47 79.6085 213.048 77.1197 214.52 73.9613C215.884 71.0369 219.347 69.7827 222.254 71.1539C225.161 72.5251 226.408 76.0084 225.045 78.9328C222.351 84.7034 217.641 89.2529 211.801 91.742C208.584 93.1127 205.192 93.7953 201.8 93.7953ZM196.315 54.9006C192.859 56.3758 190.172 59.1118 188.757 62.6146C188.11 64.2132 187.768 65.8899 187.722 67.5666L211.329 57.5261C210.102 56.3888 208.661 55.4985 207.078 54.8226C205.153 54.0038 200.999 52.899 196.315 54.9006Z" fill="#2E6FF2"/>
<path d="M157.455 46.7688C154.047 46.7688 151.288 49.4746 151.288 52.8173C151.288 67.633 138.993 79.6915 123.887 79.6915C108.781 79.6915 96.4857 67.633 96.4857 52.8173C96.4857 49.4746 93.7269 46.7688 90.3185 46.7688C86.9109 46.7688 84.1514 49.4746 84.1514 52.8173C84.1514 67.633 71.8567 79.6915 56.7508 79.6915C41.6448 79.6915 29.3497 67.633 29.3497 52.8173C29.3497 49.4746 26.5908 46.7688 23.1827 46.7688C19.7746 46.7688 17.0157 49.4746 17.0157 52.8173C17.0157 74.3055 34.8416 91.789 56.7508 91.789C70.8635 91.789 83.2688 84.531 90.3185 73.6306C97.369 84.531 109.781 91.789 123.887 91.789C145.796 91.789 163.622 74.3055 163.622 52.8173C163.622 49.4746 160.863 46.7688 157.455 46.7688Z" fill="#2E6FF2"/>
<path d="M496.438 21.2347H490.283V90.6261H496.438V21.2347Z" fill="#47494D"/>
<path d="M514.105 21.6445C511.739 21.6445 509.885 23.5037 509.885 25.8759C509.885 28.2482 511.739 30.1106 514.105 30.1106C516.472 30.1106 518.329 28.2482 518.329 25.8759C518.329 23.5037 516.472 21.6445 514.105 21.6445Z" fill="#47494D"/>
<path d="M517.183 42.0352H511.028V90.6261H517.183V42.0352Z" fill="#47494D"/>
<path d="M555.355 40.889C546.907 40.889 541.111 45.3236 537.931 49.4951V42.0351H531.776V90.6261H537.931V65.3478C537.931 56.5985 545.066 46.813 554.621 46.813C563.411 46.813 568.453 52.6136 568.453 62.7256V90.6261H574.607V62.1526C574.607 49.635 566.691 40.889 555.355 40.889Z" fill="#47494D"/>
<path d="M608.064 62.8156L628.619 42.0352H620.208L593.225 69.3959V21.2347H587.067V90.6261H593.225V77.862L603.773 67.1436L622.823 90.6261H630.666L608.064 62.8156Z" fill="#47494D"/>
</svg>
